<svg width="750" height="500" viewBox="0 0 750 500" fill="none" xmlns="http://www.w3.org/2000/svg">
<path d="M108.553 252.374C108.553 252.374 100.634 251.804 101.363 269.568C102.092 287.332 103.904 296.794 103.904 296.794C103.904 296.794 103.671 300.733 100.621 299.96C97.571 299.187 91.832 295.354 88.998 298.219C86.059 301.191 87.104 305.749 91.003 311.118C94.902 316.487 103.012 328.563 103.742 329.657C104.458 330.732 104.745 332.747 102.583 332.553C100.42 332.359 85.825 327.412 83.892 334.479C81.959 341.545 95.279 354.717 96.707 356.185C98.136 357.653 98.212 358.58 97.633 359.468C97.053 360.356 92.304 358.231 88.095 356.994C83.886 355.757 78.789 355.061 78.015 359.231C77.242 363.401 83.108 375.606 105.078 388.433L115.647 393.71L125.651 387.329C146.227 372.369 150.844 359.639 149.657 355.567C148.47 351.495 143.468 352.698 139.404 354.349C135.34 356.001 130.827 358.59 130.162 357.765C129.497 356.939 129.481 356.01 130.755 354.406C132.03 352.803 143.965 338.364 141.335 331.527C138.705 324.689 124.677 331.071 122.545 331.48C120.413 331.889 120.497 329.855 121.102 328.714C121.718 327.552 128.58 314.725 131.922 308.993C135.264 303.261 135.848 298.622 132.626 295.959C129.519 293.391 124.193 297.779 121.235 298.854C118.277 299.929 117.651 296.033 117.651 296.033C117.651 296.033 118.508 286.438 117.456 268.69C116.404 250.942 108.392 252.375 108.392 252.375" fill="#EBEBEB"/>
<path d="M109.178 268.284C109.178 268.284 109.199 268.409 109.221 268.655C109.241 268.918 109.269 269.28 109.305 269.745C109.371 270.723 109.467 272.133 109.59 273.94C109.833 277.583 110.144 282.858 110.504 289.376C111.229 302.413 112.075 320.431 112.945 340.333C113.814 360.242 114.616 378.261 115.268 391.301C115.599 397.807 115.867 403.078 116.053 406.742C116.143 408.551 116.213 409.962 116.262 410.941C116.281 411.407 116.296 411.77 116.306 412.033C116.314 412.279 116.307 412.406 116.307 412.406C116.307 412.406 116.286 412.281 116.264 412.036C116.244 411.773 116.216 411.411 116.18 410.946C116.114 409.968 116.018 408.558 115.895 406.752C115.652 403.109 115.341 397.835 114.981 391.317C114.257 378.28 113.41 360.26 112.54 340.352C111.671 320.45 110.869 302.432 110.218 289.393C109.887 282.887 109.619 277.616 109.432 273.951C109.342 272.142 109.272 270.731 109.223 269.752C109.204 269.286 109.189 268.923 109.179 268.659C109.172 268.411 109.178 268.284 109.178 268.284Z" fill="#E0E0E0"/>
<path d="M96.81 303.905C96.83 303.885 97.063 304.081 97.468 304.452C97.875 304.821 98.446 305.374 99.145 306.063C100.54 307.445 102.416 309.404 104.445 311.604C106.431 313.776 108.226 315.74 109.614 317.26C110.231 317.929 110.756 318.498 111.187 318.966C111.56 319.368 111.757 319.6 111.738 319.62C111.719 319.64 111.484 319.446 111.076 319.078C110.67 318.707 110.099 318.155 109.407 317.458C108.025 316.062 106.176 314.08 104.148 311.879C102.148 309.722 100.339 307.772 98.94 306.263C98.319 305.597 97.791 305.03 97.357 304.564C96.985 304.159 96.79 303.925 96.81 303.905Z" fill="#E0E0E0"/>
<path d="M112.785 319.272C112.705 319.193 116.571 315.146 121.417 310.232C126.265 305.317 130.259 301.397 130.338 301.475C130.417 301.553 126.553 305.6 121.705 310.516C116.859 315.429 112.865 319.35 112.785 319.272Z" fill="#E0E0E0"/>
<path d="M112.742 349.899C112.729 349.874 112.992 349.708 113.479 349.43C114.043 349.113 114.734 348.726 115.546 348.27C117.29 347.29 119.695 345.928 122.294 344.33C124.898 342.738 127.205 341.216 128.867 340.103C129.642 339.586 130.301 339.147 130.839 338.788C131.307 338.48 131.574 338.321 131.59 338.343C131.606 338.366 131.371 338.568 130.931 338.915C130.49 339.262 129.844 339.751 129.03 340.338C127.406 341.514 125.117 343.078 122.505 344.675C119.898 346.278 117.463 347.604 115.681 348.522C114.788 348.977 114.061 349.337 113.55 349.57C113.042 349.806 112.754 349.924 112.742 349.899Z" fill="#E0E0E0"/>
<path d="M95.232 339.181C95.246 339.157 95.506 339.28 95.963 339.524C96.42 339.768 97.075 340.132 97.879 340.589C99.488 341.503 101.697 342.79 104.123 344.233C106.55 345.676 108.736 347.003 110.307 347.98C111.093 348.469 111.725 348.87 112.157 349.155C112.589 349.44 112.822 349.609 112.807 349.633C112.793 349.657 112.533 349.534 112.076 349.29C111.619 349.046 110.964 348.682 110.16 348.225C108.551 347.311 106.342 346.023 103.915 344.58C101.489 343.137 99.303 341.811 97.732 340.834C96.946 340.345 96.314 339.944 95.881 339.659C95.45 339.374 95.218 339.205 95.232 339.181Z" fill="#E0E0E0"/>
<path d="M91.759 366.214C91.773 366.19 92.103 366.351 92.689 366.664C93.34 367.023 94.165 367.478 95.149 368.021C97.217 369.182 100.06 370.81 103.188 372.63C106.316 374.45 109.137 376.118 111.168 377.342C112.126 377.929 112.929 378.421 113.563 378.81C114.124 379.164 114.427 379.372 114.413 379.396C114.399 379.42 114.069 379.259 113.483 378.946C112.832 378.587 112.007 378.132 111.023 377.589C108.955 376.428 106.112 374.8 102.983 372.98C99.856 371.16 97.035 369.493 95.004 368.269C94.046 367.682 93.243 367.19 92.609 366.801C92.048 366.445 91.745 366.238 91.759 366.214Z" fill="#E0E0E0"/>
<path d="M113.96 378.928C113.946 378.904 114.274 378.686 114.879 378.313C115.552 377.904 116.414 377.378 117.448 376.749C119.616 375.428 122.605 373.593 125.848 371.477C129.096 369.365 131.986 367.378 134.069 365.927C135.063 365.236 135.893 364.66 136.539 364.211C137.125 363.809 137.456 363.597 137.473 363.619C137.49 363.641 137.189 363.896 136.632 364.338C136.075 364.78 135.258 365.405 134.235 366.16C132.192 367.673 129.322 369.701 126.068 371.817C122.819 373.937 119.8 375.736 117.592 376.996C116.486 377.623 115.586 378.121 114.956 378.45C114.328 378.781 113.974 378.953 113.96 378.928Z" fill="#E0E0E0"/>
<path d="M129.845 397.167H100.605L110.148 469.409H120.301L129.845 397.167Z" fill="#E0E0E0"/>
<path d="M102.122 406.047C102.111 406.054 102.154 406.149 102.278 406.304C102.403 406.457 102.632 406.657 102.983 406.809C103.676 407.111 104.894 407.135 106.071 406.43C107.252 405.779 108.28 404.499 109.863 403.934C111.432 403.335 113.376 403.442 115.24 404.041C117.125 404.624 118.763 405.578 120.247 406.467C121.734 407.352 123.096 408.141 124.319 408.652C125.532 409.182 126.59 409.426 127.322 409.52C127.689 409.569 127.975 409.583 128.17 409.577C128.364 409.577 128.466 409.569 128.467 409.553C128.484 409.457 126.812 409.472 124.456 408.344C123.275 407.804 121.949 406.997 120.474 406.091C119.006 405.185 117.329 404.188 115.382 403.586C113.458 402.967 111.39 402.855 109.707 403.524C108.866 403.844 108.16 404.347 107.571 404.845C106.974 405.339 106.439 405.804 105.897 406.142C104.827 406.833 103.704 406.862 103.049 406.636C102.376 406.402 102.16 406.007 102.122 406.047Z" fill="#F5F5F5"/>
<path d="M103.189 419.353C103.228 419.377 103.421 419.055 103.878 418.578C104.343 418.114 105.106 417.507 106.213 417.097C107.31 416.676 108.72 416.426 110.279 416.485C111.845 416.539 113.552 416.883 115.367 417.178C117.179 417.483 118.974 417.619 120.577 417.394C122.18 417.188 123.572 416.727 124.676 416.224C125.783 415.719 126.603 415.166 127.141 414.758C127.681 414.349 127.938 414.074 127.922 414.055C127.867 413.976 126.738 414.987 124.541 415.914C123.445 416.367 122.081 416.782 120.524 416.957C118.967 417.15 117.243 417.008 115.442 416.706C113.642 416.414 111.908 416.076 110.292 416.045C108.674 416.009 107.215 416.304 106.086 416.784C104.947 417.253 104.177 417.934 103.74 418.453C103.529 418.723 103.376 418.939 103.298 419.101C103.213 419.259 103.175 419.345 103.189 419.353Z" fill="#F5F5F5"/>
<path d="M126.532 426.476C126.543 426.454 126.273 426.272 125.726 426.058C125.182 425.843 124.351 425.622 123.303 425.538C122.256 425.455 121.001 425.522 119.639 425.748C118.275 425.969 116.814 426.345 115.279 426.671C113.745 426.994 112.265 427.212 110.924 427.163C109.584 427.116 108.392 426.823 107.467 426.415C105.585 425.589 104.915 424.387 104.845 424.463C104.827 424.474 104.96 424.775 105.34 425.226C105.717 425.676 106.375 426.251 107.325 426.721C108.274 427.188 109.51 427.529 110.905 427.602C112.303 427.678 113.825 427.465 115.377 427.138C116.929 426.808 118.38 426.421 119.714 426.181C121.047 425.936 122.265 425.837 123.284 425.875C125.336 425.943 126.503 426.563 126.532 426.476Z" fill="#F5F5F5"/>
<path d="M105.773 436.495C105.787 436.572 106.817 435.844 108.612 436.209C109.492 436.368 110.476 436.814 111.582 437.316C112.684 437.83 114.012 438.269 115.437 438.379C118.31 438.655 120.865 437.727 122.432 436.758C123.235 436.282 123.794 435.77 124.173 435.419C124.529 435.04 124.711 434.822 124.688 434.8C124.624 434.73 123.856 435.594 122.263 436.466C120.697 437.333 118.231 438.169 115.48 437.904C112.712 437.746 110.587 436.095 108.668 435.877C107.732 435.737 106.95 435.871 106.463 436.068C105.967 436.26 105.758 436.478 105.773 436.495Z" fill="#F5F5F5"/>
<path d="M107.401 450.361C107.401 450.416 108.382 450.409 109.839 449.877C111.309 449.386 113.128 448.259 115.253 447.415C116.319 447.009 117.388 446.759 118.36 446.764C119.333 446.769 120.201 447.006 120.858 447.334C122.201 448.003 122.59 448.953 122.664 448.893C122.685 448.884 122.626 448.645 122.387 448.277C122.151 447.91 121.703 447.431 121.017 447.037C120.333 446.646 119.413 446.355 118.367 446.325C117.318 446.294 116.188 446.549 115.084 446.97C112.882 447.848 111.121 449.007 109.717 449.564C108.33 450.161 107.39 450.284 107.401 450.361Z" fill="#F5F5F5"/>
<path d="M108.835 456.812C108.819 456.872 109.52 457.124 110.686 457.413C111.851 457.703 113.487 458.012 115.314 458.193C117.141 458.371 118.806 458.386 120.006 458.329C121.206 458.273 121.942 458.162 121.939 458.1C121.932 457.956 118.976 458.082 115.361 457.718C111.746 457.372 108.87 456.672 108.835 456.812Z" fill="#F5F5F5"/>
<path d="M650.239 55.7285L640.284 55.7822L640.552 105.319L650.507 105.265L650.239 55.7285Z" fill="#E0E0E0"/>
<path d="M579.812 55.9171L554.032 56.0537L554.177 83.4017L579.957 83.2651L579.812 55.9171Z" fill="#EBEBEB"/>
<path d="M605.476 55.7231L579.696 55.8623L579.844 83.2103L605.624 83.0711L605.476 55.7231Z" fill="#F5F5F5"/>
<path d="M554.068 63.5784C571.2 63.7194 588.375 63.6204 605.506 63.3414C605.858 63.3364 605.856 62.7954 605.503 62.7934C588.37 62.6984 571.195 62.7834 554.065 63.1084C553.763 63.1144 553.765 63.5754 554.068 63.5784Z" fill="#E0E0E0"/>
<path d="M584.804 82.7549L537.965 83.0078L538.086 105.294L584.925 105.041L584.804 82.7549Z" fill="#EBEBEB"/>
<path d="M631.422 82.5029L584.583 82.7559L584.703 105.042L631.542 104.789L631.422 82.5029Z" fill="#F5F5F5"/>
<path d="M537.987 89.2279C569.103 89.5799 600.328 89.2639 631.442 88.7659C631.795 88.7599 631.792 88.2199 631.439 88.2179C600.321 88.0529 569.095 88.0719 537.984 88.7579C537.683 88.7649 537.684 89.2239 537.987 89.2279Z" fill="#E0E0E0"/>
<path d="M701.937 105.314H520.471V113.298H701.937V105.314Z" fill="#E0E0E0"/>
<path d="M557.548 109.153H550.181V136.396H557.548V109.153Z" fill="#E0E0E0"/>
<path d="M667.516 109.153H660.149V136.396H667.516V109.153Z" fill="#E0E0E0"/>
<path d="M659.953 37.2558L649.998 37.3096L650.366 105.44L660.321 105.386L659.953 37.2558Z" fill="#EBEBEB"/>
<path d="M675.508 49.9497L660.039 50.0332L660.337 105.245L675.806 105.162L675.508 49.9497Z" fill="#F5F5F5"/>
<path d="M675.393 60.6049C675.393 60.7529 671.93 60.8729 667.659 60.8729C663.387 60.8729 659.924 60.7529 659.924 60.6049C659.924 60.4569 663.386 60.3369 667.659 60.3369C671.93 60.3369 675.393 60.4569 675.393 60.6049Z" fill="#E0E0E0"/>
<path d="M675.393 58.2856C675.393 58.4336 671.93 58.5536 667.659 58.5536C663.387 58.5536 659.924 58.4336 659.924 58.2856C659.924 58.1376 663.386 58.0176 667.659 58.0176C671.93 58.0176 675.393 58.1376 675.393 58.2856Z" fill="#E0E0E0"/>
<path d="M675.393 96.8725C675.393 97.0205 671.93 97.1405 667.659 97.1405C663.387 97.1405 659.924 97.0205 659.924 96.8725C659.924 96.7245 663.386 96.6045 667.659 96.6045C671.93 96.6045 675.393 96.7245 675.393 96.8725Z" fill="#E0E0E0"/>
<path d="M675.393 94.5522C675.393 94.7002 671.93 94.8202 667.659 94.8202C663.387 94.8202 659.924 94.7002 659.924 94.5522C659.924 94.4042 663.386 94.2842 667.659 94.2842C671.93 94.2842 675.393 94.4042 675.393 94.5522Z" fill="#E0E0E0"/>
<path d="M667.907 89.4923C667.759 89.4923 667.639 83.9223 667.639 77.0523C667.639 70.1803 667.759 64.6113 667.907 64.6113C668.055 64.6113 668.175 70.1803 668.175 77.0523C668.175 83.9213 668.055 89.4923 667.907 89.4923Z" fill="#E0E0E0"/>
<path d="M692.398 63.5264H675.56V105.2H692.398V63.5264Z" fill="#EBEBEB"/>
<path d="M657.679 48.9176C657.679 50.4976 656.398 51.7786 654.818 51.7786C653.238 51.7786 651.957 50.4976 651.957 48.9176C651.957 47.3376 653.238 46.0566 654.818 46.0566C656.398 46.0556 657.679 47.3366 657.679 48.9176Z" fill="#E0E0E0"/>
<path d="M655.702 56.7871H653.933V97.3161H655.702V56.7871Z" fill="#E0E0E0"/>
<path d="M185.771 38.79H80.2151V191.789H185.771V38.79Z" fill="#E0E0E0"/>
<path d="M180.484 38.79H74.928V191.789H180.484V38.79Z" fill="#F5F5F5"/>
<path d="M167.369 55.3613H88.0422V175.218H167.369V55.3613Z" fill="white"/>
<path d="M167.369 175.218C167.369 175.218 167.359 175.015 167.354 174.632C167.35 174.236 167.345 173.672 167.338 172.933C167.331 171.427 167.32 169.222 167.306 166.359C167.29 160.615 167.265 152.244 167.235 141.669C167.203 120.534 167.158 90.6062 167.105 55.3622L167.368 55.6252C143.132 55.6322 116.277 55.6402 88.0512 55.6492H88.0422L88.3292 55.3622C88.3072 100.577 88.2872 142.266 88.2712 175.219L88.0422 174.99C112.2 175.04 132.002 175.082 145.782 175.11C152.675 175.135 158.057 175.155 161.734 175.168C163.561 175.179 164.961 175.188 165.921 175.194C166.869 175.202 167.369 175.218 167.369 175.218C167.369 175.218 166.902 175.234 165.969 175.243C165.019 175.249 163.633 175.257 161.824 175.269C158.159 175.282 152.793 175.302 145.923 175.327C132.11 175.356 112.259 175.397 88.0412 175.447H87.8121V175.218C87.7961 142.265 87.7762 100.576 87.7542 55.3612V55.0742H88.0412H88.0502C116.276 55.0822 143.132 55.0912 167.367 55.0982H167.631V55.3612C167.578 90.6762 167.533 120.664 167.501 141.841C167.471 152.39 167.447 160.741 167.43 166.471C167.416 169.311 167.405 171.498 167.398 172.992C167.391 173.718 167.386 174.273 167.382 174.662C167.38 175.036 167.369 175.218 167.369 175.218Z" fill="#E0E0E0"/>
<path d="M180.78 38.7899C180.842 38.8379 180.125 39.8839 178.899 41.5239C177.673 43.1639 175.932 45.3939 173.946 47.8059C171.959 50.2179 170.103 52.3539 168.728 53.8719C167.353 55.3899 166.464 56.2939 166.406 56.2419C166.345 56.1889 167.126 55.1909 168.42 53.6069C169.835 51.8899 171.576 49.7779 173.502 47.4409C175.425 45.1039 177.165 42.9899 178.579 41.2729C179.886 39.6989 180.716 38.7409 180.78 38.7899Z" fill="#E0E0E0"/>
<path d="M167.773 174.832C171.713 181.097 176.364 186.914 181.609 192.136Z" fill="white"/>
<path d="M181.609 192.136C181.557 192.189 180.615 191.372 179.197 189.942C177.778 188.513 175.899 186.456 173.978 184.056C172.058 181.653 170.465 179.367 169.383 177.669C168.3 175.971 167.71 174.873 167.773 174.834C167.845 174.789 168.555 175.809 169.719 177.442C170.882 179.075 172.518 181.309 174.426 183.698C176.336 186.084 178.155 188.171 179.493 189.665C180.829 191.158 181.669 192.076 181.609 192.136Z" fill="#E0E0E0"/>
<path d="M74.9121 191.668C79.5211 185.982 84.1291 180.296 88.7381 174.609Z" fill="white"/>
<path d="M88.7391 174.609C88.8621 174.709 85.8671 178.609 82.0491 183.319C78.2301 188.031 75.0361 191.768 74.9131 191.668C74.7901 191.568 77.7851 187.669 81.6031 182.958C85.4201 178.247 88.6151 174.509 88.7391 174.609Z" fill="#E0E0E0"/>
<path d="M74.9281 38.79C75.0521 38.692 78.0571 42.284 81.6391 46.812C85.2221 51.342 88.0241 55.093 87.9001 55.191C87.7761 55.289 84.7711 51.698 81.1891 47.168C77.6071 42.64 74.8031 38.889 74.9281 38.79Z" fill="#E0E0E0"/>
<path d="M142.654 79.6973H116.092V155.113H142.654V79.6973Z" fill="#E0E0E0"/>
<path d="M635.108 333.691H450.657V418.757H635.108V333.691Z" fill="#F5F5F5"/>
<path d="M630.717 414.748H454.879V338.167H630.718V414.748H630.717ZM456.026 413.601H629.57V339.315H456.026V413.601Z" fill="#E0E0E0"/>
<path d="M680.168 333.691H635.108V418.757H680.168V333.691Z" fill="#E0E0E0"/>
<path d="M455.452 361.867C475.212 361.867 494.972 361.867 514.732 361.867C545.952 361.867 577.172 361.867 608.392 361.867C615.642 361.867 622.892 361.867 630.143 361.867C630.441 361.867 630.442 361.404 630.143 361.404C610.383 361.404 590.623 361.404 570.863 361.404C539.643 361.404 508.423 361.404 477.203 361.404C469.953 361.404 462.702 361.404 455.452 361.404C455.154 361.404 455.154 361.867 455.452 361.867Z" fill="#E0E0E0"/>
<path d="M543.368 361.637C543.892 354.086 543.835 346.088 543.428 338.53C543.412 338.228 542.974 338.227 542.957 338.53C542.55 346.088 542.493 354.086 543.017 361.637C543.033 361.862 543.353 361.863 543.368 361.637Z" fill="#E0E0E0"/>
<path d="M590.389 350.082C590.389 351.396 589.324 352.462 588.009 352.462C586.694 352.462 585.629 351.396 585.629 350.082C585.629 348.768 586.694 347.702 588.009 347.702C589.324 347.702 590.389 348.768 590.389 350.082Z" fill="#E0E0E0"/>
<path d="M498.711 350.082C498.711 351.396 497.646 352.462 496.331 352.462C495.016 352.462 493.951 351.396 493.951 350.082C493.951 348.768 495.017 347.702 496.331 347.702C497.645 347.702 498.711 348.768 498.711 350.082Z" fill="#E0E0E0"/>
<path d="M545.178 376.458C545.178 377.772 544.113 378.838 542.798 378.838C541.483 378.838 540.418 377.772 540.418 376.458C540.418 375.143 541.483 374.078 542.798 374.078C544.112 374.078 545.178 375.143 545.178 376.458Z" fill="#E0E0E0"/>
<path d="M472.71 418.759L463.213 472.165H468.555L486.064 418.759H472.71Z" fill="#E0E0E0"/>
<path d="M622.057 418.759L629.999 472.258H624.657L608.703 418.759H622.057Z" fill="#E0E0E0"/>
<path d="M657.715 418.759L666.713 472.258H661.371L644.361 418.759H657.715Z" fill="#E0E0E0"/>
<path d="M545.018 400.533C545.018 401.847 543.953 402.913 542.638 402.913C541.323 402.913 540.258 401.848 540.258 400.533C540.258 399.218 541.324 398.153 542.638 398.153C543.953 398.153 545.018 399.218 545.018 400.533Z" fill="#E0E0E0"/>
<path d="M455.452 388.209C475.212 388.209 494.972 388.209 514.732 388.209C545.952 388.209 577.172 388.209 608.392 388.209C615.642 388.209 622.892 388.209 630.143 388.209C630.441 388.209 630.442 387.746 630.143 387.746C610.383 387.746 590.623 387.746 570.863 387.746C539.643 387.746 508.423 387.746 477.203 387.746C469.953 387.746 462.702 387.746 455.452 387.746C455.154 387.746 455.154 388.209 455.452 388.209Z" fill="#E0E0E0"/>
<path d="M296.313 439.473V471.81H343.602H395.759V439.473H296.313Z" fill="#F5F5F5"/>
<path d="M292.141 430.432V439.473H399.237V430.432H343.602H292.141Z" fill="#E0E0E0"/>
<path d="M345.688 471.81H395.759V439.473H399.237V430.432H343.602V438.637L345.688 471.81Z" fill="#E0E0E0"/>
<path d="M330.388 444.688H310.221V449.556H330.388V444.688Z" fill="#E0E0E0"/>
<path d="M333.522 455.641H307.626V465.92H333.522V455.641Z" fill="white"/>
<path d="M311.613 398.138V430.475H358.901H411.059V398.138H311.613Z" fill="#F5F5F5"/>
<path d="M307.44 389.097V398.138H414.536V389.097H358.901H307.44Z" fill="#E0E0E0"/>
<path d="M360.988 430.475H411.059V398.138H414.536V389.097H358.901V397.301L360.988 430.475Z" fill="#E0E0E0"/>
<path d="M345.688 403.353H325.521V408.221H345.688V403.353Z" fill="#E0E0E0"/>
<path d="M348.822 414.306H322.926V424.585H348.822V414.306Z" fill="white"/>
<path d="M612.062 271.234C613.87 270.141 615.795 269.313 617.78 268.749L618.958 263.089L628.52 262.921L629.896 268.535C631.9 269.029 633.853 269.789 635.698 270.818L640.531 267.65L647.411 274.293L644.416 279.233C645.509 281.042 646.337 282.967 646.901 284.952L652.56 286.13L652.728 295.691L647.114 297.067C646.62 299.07 645.86 301.023 644.832 302.868L647.999 307.701L641.357 314.581L636.417 311.585C634.609 312.678 632.684 313.506 630.698 314.07L629.52 319.73L619.958 319.898L618.582 314.284C616.578 313.79 614.626 313.03 612.781 312.001L607.949 315.169L601.069 308.526L604.064 303.586C602.971 301.778 602.143 299.853 601.579 297.868L595.92 296.69L595.752 287.128L601.366 285.751C601.86 283.748 602.621 281.795 603.648 279.95L600.481 275.117L607.123 268.237L612.062 271.234ZM617.159 283.972C613.223 288.048 613.338 294.543 617.414 298.478C621.49 302.413 627.985 302.299 631.92 298.223C635.855 294.147 635.741 287.652 631.665 283.717C627.589 279.782 621.095 279.896 617.159 283.972Z" fill="#EBEBEB"/>
<path d="M309.148 274.669C312.299 272.764 315.654 271.32 319.114 270.337L321.167 260.472L337.835 260.18L340.234 269.966C343.727 270.827 347.131 272.152 350.347 273.945L358.771 268.423L370.764 280.003L365.543 288.614C367.448 291.766 368.892 295.122 369.874 298.583L379.738 300.636L380.031 317.304L370.245 319.703C369.384 323.195 368.059 326.599 366.267 329.815L371.788 338.239L360.21 350.232L351.598 345.01C348.446 346.915 345.091 348.358 341.63 349.341L339.577 359.206L322.91 359.498L320.511 349.711C317.018 348.85 313.615 347.525 310.398 345.732L301.974 351.254L289.981 339.675L295.202 331.064C293.297 327.912 291.853 324.557 290.87 321.096L281.005 319.043L280.712 302.376L290.499 299.976C291.36 296.484 292.686 293.08 294.477 289.864L288.956 281.44L300.534 269.447L309.148 274.669ZM318.033 296.872C311.173 303.978 311.372 315.299 318.478 322.159C325.583 329.019 336.905 328.82 343.764 321.714C350.623 314.609 350.425 303.287 343.319 296.428C336.214 289.568 324.893 289.767 318.033 296.872Z" fill="#EBEBEB"/>
<path d="M414.095 176.814C415.628 175.887 417.261 175.185 418.945 174.706L419.944 169.905L428.055 169.763L429.222 174.525C430.922 174.944 432.578 175.589 434.143 176.461L438.242 173.774L444.078 179.409L441.537 183.599C442.464 185.133 443.167 186.766 443.645 188.45L448.445 189.449L448.587 197.56L443.825 198.728C443.406 200.427 442.761 202.083 441.889 203.649L444.575 207.748L438.941 213.584L434.75 211.043C433.216 211.97 431.583 212.672 429.899 213.15L428.9 217.951L420.789 218.093L419.622 213.331C417.923 212.912 416.267 212.267 414.701 211.395L410.602 214.082L404.766 208.447L407.307 204.257C406.38 202.723 405.677 201.091 405.199 199.406L400.399 198.407L400.257 190.296L405.019 189.128C405.438 187.429 406.083 185.772 406.955 184.207L404.268 180.108L409.902 174.272L414.095 176.814ZM418.419 187.618C415.081 191.076 415.177 196.585 418.635 199.923C422.092 203.261 427.601 203.164 430.94 199.706C434.278 196.248 434.181 190.739 430.724 187.401C427.266 184.064 421.757 184.161 418.419 187.618Z" fill="#F5F5F5"/>
<path d="M463.949 199.524C466.637 197.899 469.499 196.668 472.451 195.829L474.202 187.413L488.42 187.164L490.467 195.512C493.447 196.246 496.35 197.377 499.094 198.906L506.28 194.196L516.51 204.074L512.056 211.42C513.681 214.109 514.913 216.972 515.751 219.924L524.166 221.675L524.416 235.893L516.068 237.94C515.334 240.919 514.203 243.822 512.674 246.566L517.384 253.752L507.507 263.983L500.161 259.528C497.472 261.153 494.61 262.384 491.658 263.223L489.906 271.639L475.688 271.888L473.641 263.54C470.662 262.806 467.759 261.675 465.014 260.146L457.828 264.857L447.597 254.979L452.051 247.633C450.426 244.944 449.194 242.082 448.356 239.13L439.941 237.379L439.691 223.161L448.039 221.114C448.773 218.135 449.905 215.232 451.433 212.488L446.723 205.302L456.6 195.072L463.949 199.524ZM471.528 218.465C465.676 224.527 465.845 234.184 471.907 240.036C477.968 245.888 487.626 245.718 493.477 239.656C499.328 233.595 499.159 223.937 493.098 218.085C487.037 212.235 477.38 212.405 471.528 218.465Z" fill="#EBEBEB"/>
<path d="M470.878 126.751C472.222 125.939 473.653 125.323 475.129 124.904L476.005 120.696L483.114 120.571L484.137 124.745C485.627 125.112 487.079 125.677 488.451 126.442L492.044 124.087L497.159 129.026L494.932 132.699C495.745 134.044 496.36 135.475 496.78 136.951L500.987 137.827L501.112 144.936L496.938 145.959C496.571 147.449 496.006 148.9 495.241 150.272L497.596 153.865L492.658 158.98L488.985 156.753C487.64 157.565 486.209 158.181 484.733 158.6L483.857 162.808L476.748 162.933L475.725 158.759C474.235 158.392 472.784 157.826 471.412 157.062L467.819 159.417L462.704 154.478L464.931 150.805C464.119 149.461 463.503 148.03 463.083 146.553L458.876 145.677L458.751 138.568L462.925 137.544C463.292 136.054 463.858 134.603 464.622 133.231L462.267 129.638L467.205 124.523L470.878 126.751ZM474.668 136.222C471.742 139.253 471.827 144.081 474.858 147.007C477.888 149.933 482.717 149.848 485.643 146.817C488.569 143.786 488.484 138.957 485.453 136.032C482.423 133.106 477.594 133.191 474.668 136.222Z" fill="#EBEBEB"/>
<path d="M385.904 231.548C389.372 229.452 393.063 227.863 396.871 226.782L399.13 215.926L417.471 215.604L420.11 226.372C423.954 227.319 427.699 228.777 431.239 230.75L440.509 224.674L453.706 237.416L447.961 246.891C450.057 250.36 451.646 254.053 452.727 257.861L463.581 260.12L463.903 278.461L453.135 281.102C452.188 284.945 450.73 288.689 448.757 292.228L454.832 301.498L442.092 314.695L432.616 308.949C429.148 311.045 425.455 312.633 421.647 313.715L419.388 324.572L401.048 324.893L398.408 314.124C394.565 313.177 390.82 311.718 387.28 309.746L378.01 315.822L364.813 303.08L370.559 293.604C368.463 290.135 366.873 286.444 365.792 282.635L354.937 280.376L354.615 262.036L365.384 259.395C366.331 255.552 367.79 251.807 369.762 248.268L363.687 238.998L376.427 225.801L385.904 231.548Z" fill="#407BFF"/>
<path d="M397.727 252.827H387.651V284.298H397.727V252.827Z" fill="white"/>
<path d="M412.772 260.017H402.696V284.299H412.772V260.017Z" fill="white"/>
<path d="M426.701 269.878H416.625V284.298H426.701V269.878Z" fill="white"/>
<path d="M234.857 229.324C238.325 227.228 242.016 225.639 245.824 224.558L248.083 213.702L266.424 213.38L269.063 224.148C272.907 225.095 276.652 226.553 280.192 228.526L289.462 222.45L302.659 235.192L296.914 244.667C299.01 248.136 300.599 251.829 301.68 255.637L312.534 257.896L312.856 276.237L302.087 278.877C301.14 282.72 299.682 286.465 297.709 290.004L303.784 299.274L291.044 312.471L281.567 306.725C278.099 308.821 274.406 310.409 270.598 311.491L268.339 322.347L249.999 322.669L247.359 311.9C243.516 310.953 239.771 309.494 236.231 307.522L226.961 313.598L213.764 300.856L219.51 291.38C217.414 287.911 215.824 284.22 214.743 280.411L203.888 278.152L203.566 259.812L214.335 257.171C215.282 253.328 216.741 249.583 218.713 246.044L212.638 236.774L225.378 223.577L234.857 229.324Z" fill="#407BFF"/>
<path d="M261.127 298.755C247.445 298.755 235.161 289.608 231.254 276.509C231.175 276.244 231.325 275.966 231.59 275.887C231.855 275.81 232.133 275.958 232.212 276.224C235.993 288.901 247.883 297.755 261.127 297.755C277.762 297.755 291.296 284.221 291.296 267.586C291.296 250.951 277.762 237.417 261.127 237.417C247.223 237.417 235.18 246.83 231.842 260.308C231.775 260.576 231.502 260.737 231.237 260.673C230.969 260.607 230.805 260.335 230.872 260.068C234.321 246.143 246.763 236.418 261.128 236.418C278.314 236.418 292.297 250.4 292.297 267.587C292.296 284.773 278.314 298.755 261.127 298.755Z" fill="white"/>
<path d="M260.956 289.245C251.285 289.245 242.708 282.739 240.098 273.425C240.023 273.159 240.179 272.883 240.445 272.809C240.709 272.736 240.987 272.89 241.061 273.156C243.551 282.041 251.732 288.246 260.956 288.246C272.347 288.246 281.614 278.978 281.614 267.588C281.614 256.197 272.347 246.93 260.956 246.93C251.734 246.93 243.554 253.133 241.062 262.015C240.987 262.282 240.713 262.438 240.445 262.362C240.179 262.288 240.024 262.011 240.099 261.746C242.711 252.435 251.288 245.931 260.956 245.931C272.898 245.931 282.614 255.646 282.614 267.589C282.614 279.529 272.898 289.245 260.956 289.245Z" fill="white"/>
<path d="M260.956 272.445C259.849 272.445 258.78 272.118 257.864 271.499C257.635 271.345 257.575 271.034 257.73 270.805C257.884 270.578 258.196 270.514 258.424 270.671C259.174 271.178 260.049 271.445 260.956 271.445C263.455 271.445 265.488 269.412 265.488 266.913C265.488 264.413 263.455 262.38 260.956 262.38C260.208 262.38 259.468 262.566 258.814 262.919C258.57 263.05 258.268 262.96 258.136 262.717C258.005 262.475 258.095 262.171 258.338 262.04C259.137 261.608 260.042 261.38 260.955 261.38C264.005 261.38 266.487 263.862 266.487 266.913C266.488 269.963 264.007 272.445 260.956 272.445Z" fill="white"/>
<path d="M261.127 266.722L253.049 262.786L253.203 266.294L231.735 266.798L231.973 268.374L253.467 268.02L253.529 271.581L261.127 266.722Z" fill="white"/>
<path d="M237.642 267.323L237.525 267.098C236.95 265.985 235.821 265.268 234.569 265.219L227.464 264.946L230.543 267.732L227.81 271.103L234.608 270.961C236.141 270.929 237.473 269.896 237.884 268.418L237.642 267.323Z" fill="white"/>
<path d="M261.127 280.658C255.356 280.658 250.195 276.788 248.577 271.245C248.5 270.98 248.652 270.703 248.917 270.626C249.183 270.547 249.459 270.7 249.537 270.966C251.031 276.084 255.797 279.658 261.127 279.658C267.783 279.658 273.198 274.243 273.198 267.587C273.198 260.931 267.783 255.516 261.127 255.516C255.848 255.516 251.095 259.047 249.568 264.103C249.489 264.367 249.21 264.519 248.945 264.437C248.681 264.357 248.531 264.079 248.611 263.814C250.264 258.339 255.411 254.516 261.127 254.516C268.334 254.516 274.198 260.379 274.198 267.587C274.198 274.794 268.334 280.658 261.127 280.658Z" fill="white"/>
<path d="M535.325 228.483C538.793 226.387 542.484 224.798 546.292 223.717L548.551 212.862L566.892 212.54L569.532 223.308C573.376 224.255 577.121 225.713 580.661 227.686L589.93 221.61L603.127 234.352L597.382 243.827C599.478 247.296 601.067 250.989 602.148 254.797L613.002 257.056L613.324 275.397L602.556 278.037C601.609 281.88 600.151 285.625 598.178 289.164L604.253 298.434L591.513 311.631L582.037 305.885C578.569 307.981 574.876 309.569 571.068 310.651L568.808 321.507L550.468 321.829L547.828 311.06C543.985 310.113 540.24 308.654 536.7 306.682L527.431 312.758L514.234 300.016L519.98 290.54C517.884 287.071 516.295 283.38 515.213 279.571L504.358 277.312L504.036 258.972L514.805 256.331C515.752 252.488 517.211 248.743 519.183 245.204L513.108 235.934L525.848 222.737L535.325 228.483Z" fill="#407BFF"/>
<path d="M531.817 268.762L538.846 261.733L552.403 273.783L579.014 248.176L585.541 255.205L551.399 287.339L531.817 268.762Z" fill="white"/>
<path d="M350.171 234.197C350.163 234.194 350.203 234.087 350.289 233.883C350.389 233.654 350.52 233.356 350.685 232.98C350.868 232.575 351.088 232.087 351.345 231.517C351.599 230.935 351.908 230.271 352.324 229.559C352.725 228.834 353.168 228.032 353.652 227.157C354.165 226.296 354.786 225.398 355.42 224.412C356.029 223.408 356.837 222.446 357.629 221.379C358.402 220.294 359.361 219.265 360.329 218.151C361.266 217.007 362.426 215.977 363.55 214.823C364.104 214.236 364.753 213.728 365.377 213.17C366.013 212.625 366.643 212.049 367.317 211.502C368.008 210.977 368.712 210.443 369.426 209.9C369.786 209.632 370.138 209.347 370.512 209.088C370.892 208.837 371.276 208.584 371.662 208.329C372.438 207.826 373.209 207.289 374.021 206.793C374.848 206.323 375.687 205.846 376.535 205.364C377.37 204.855 378.28 204.462 379.176 204.019C380.081 203.593 380.974 203.113 381.935 202.76C382.884 202.379 383.843 201.994 384.811 201.605C385.804 201.283 386.806 200.959 387.817 200.631C391.891 199.42 396.237 198.58 400.742 198.278C405.253 198.045 409.669 198.364 413.858 199.085C414.901 199.291 415.935 199.494 416.959 199.696C417.967 199.968 418.965 200.237 419.952 200.503C420.948 200.74 421.893 201.111 422.842 201.426C423.784 201.76 424.734 202.043 425.624 202.449C426.524 202.828 427.413 203.202 428.29 203.57C429.155 203.966 429.984 204.408 430.814 204.816C431.227 205.023 431.638 205.229 432.045 205.433C432.447 205.647 432.831 205.888 433.22 206.111C433.994 206.565 434.755 207.012 435.504 207.452C436.238 207.915 436.932 208.413 437.628 208.878C438.314 209.358 439.019 209.786 439.638 210.304C440.891 211.316 442.164 212.203 443.23 213.228C444.323 214.22 445.397 215.129 446.293 216.114C447.206 217.08 448.122 217.94 448.846 218.865C449.592 219.769 450.315 220.587 450.926 221.381C451.51 222.193 452.045 222.937 452.529 223.609C453.026 224.267 453.412 224.89 453.733 225.437C454.056 225.972 454.332 226.43 454.562 226.811C454.77 227.165 454.935 227.446 455.062 227.661C455.172 227.854 455.225 227.955 455.217 227.959C455.209 227.964 455.141 227.871 455.016 227.688C454.878 227.48 454.699 227.208 454.472 226.866C454.231 226.493 453.942 226.045 453.603 225.522C453.269 224.985 452.872 224.373 452.363 223.726C451.87 223.065 451.325 222.333 450.73 221.534C450.109 220.752 449.379 219.947 448.626 219.057C447.896 218.146 446.974 217.3 446.058 216.348C445.158 215.377 444.082 214.483 442.988 213.506C441.921 212.496 440.648 211.624 439.397 210.627C438.779 210.117 438.075 209.697 437.391 209.223C436.697 208.765 436.005 208.274 435.274 207.818C434.528 207.385 433.77 206.945 432.999 206.498C432.612 206.278 432.23 206.041 431.83 205.83C431.425 205.629 431.016 205.427 430.605 205.223C429.779 204.822 428.955 204.386 428.095 203.997C427.223 203.634 426.34 203.266 425.445 202.894C424.561 202.494 423.617 202.217 422.682 201.888C421.74 201.578 420.802 201.212 419.814 200.98C418.834 200.718 417.844 200.453 416.844 200.186C415.828 199.988 414.803 199.788 413.768 199.586C409.614 198.879 405.238 198.566 400.771 198.797C396.309 199.097 392.003 199.926 387.963 201.119C386.96 201.442 385.966 201.762 384.981 202.079C384.02 202.462 383.068 202.842 382.127 203.218C381.173 203.565 380.286 204.04 379.387 204.459C378.497 204.896 377.593 205.283 376.762 205.785C375.918 206.261 375.084 206.73 374.262 207.194C373.455 207.682 372.687 208.213 371.915 208.709C371.531 208.96 371.149 209.209 370.77 209.457C370.398 209.713 370.047 209.994 369.688 210.258C368.976 210.793 368.275 211.32 367.586 211.838C366.914 212.377 366.285 212.946 365.65 213.483C365.027 214.034 364.378 214.534 363.825 215.114C362.701 216.253 361.54 217.269 360.6 218.398C359.63 219.498 358.666 220.513 357.888 221.584C357.091 222.637 356.275 223.586 355.658 224.578C355.016 225.551 354.386 226.437 353.862 227.287C353.366 228.151 352.911 228.942 352.5 229.657C352.072 230.359 351.749 231.014 351.481 231.587C351.207 232.147 350.972 232.627 350.777 233.025C350.593 233.392 350.446 233.683 350.334 233.906C350.236 234.101 350.179 234.2 350.171 234.197Z" fill="#263238"/>
<path d="M370.875 201.128C370.856 201.097 371.261 200.82 372.012 200.343C372.757 199.858 373.877 199.221 375.293 198.497C378.121 197.043 382.222 195.368 386.96 194.256C391.703 193.157 396.123 192.846 399.302 192.899C400.892 192.922 402.178 192.998 403.061 193.104C403.945 193.2 404.431 193.27 404.428 193.306C404.425 193.342 403.932 193.34 403.048 193.307C402.164 193.264 400.883 193.244 399.303 193.268C396.145 193.309 391.776 193.675 387.079 194.764C382.386 195.865 378.306 197.469 375.456 198.828C374.029 199.505 372.888 200.089 372.114 200.519C371.334 200.94 370.893 201.159 370.875 201.128Z" fill="#263238"/>
<path d="M611.204 302.812C611.212 302.816 611.172 302.922 611.085 303.126C610.985 303.355 610.854 303.653 610.689 304.029C610.506 304.434 610.286 304.922 610.029 305.492C609.775 306.074 609.466 306.738 609.05 307.45C608.649 308.175 608.206 308.977 607.722 309.852C607.209 310.714 606.588 311.611 605.954 312.597C605.345 313.601 604.537 314.563 603.745 315.63C602.972 316.715 602.013 317.744 601.045 318.858C600.108 320.002 598.948 321.033 597.824 322.186C597.27 322.773 596.621 323.281 595.997 323.839C595.361 324.384 594.731 324.96 594.057 325.507C593.366 326.032 592.662 326.566 591.948 327.109C591.588 327.377 591.236 327.662 590.862 327.921C590.482 328.172 590.099 328.425 589.713 328.68C588.937 329.183 588.166 329.72 587.354 330.216C586.527 330.686 585.688 331.163 584.839 331.645C584.004 332.154 583.094 332.547 582.198 332.99C581.293 333.416 580.4 333.896 579.439 334.249C578.49 334.63 577.531 335.015 576.563 335.404C575.57 335.726 574.568 336.05 573.557 336.378C569.483 337.589 565.137 338.429 560.632 338.732C556.121 338.965 551.705 338.646 547.516 337.925C546.473 337.719 545.439 337.516 544.415 337.314C543.407 337.042 542.409 336.773 541.422 336.507C540.426 336.27 539.481 335.899 538.532 335.584C537.589 335.25 536.64 334.967 535.75 334.561C534.85 334.182 533.961 333.809 533.084 333.44C532.219 333.044 531.39 332.602 530.56 332.194C530.147 331.987 529.736 331.781 529.329 331.577C528.927 331.363 528.543 331.122 528.154 330.899C527.38 330.445 526.619 329.998 525.87 329.558C525.136 329.095 524.442 328.597 523.746 328.131C523.06 327.651 522.356 327.223 521.736 326.705C520.483 325.693 519.21 324.806 518.143 323.781C517.05 322.789 515.976 321.88 515.08 320.895C514.167 319.929 513.251 319.069 512.528 318.145C511.782 317.241 511.059 316.423 510.448 315.629C509.864 314.817 509.329 314.073 508.845 313.401C508.347 312.743 507.962 312.12 507.641 311.573C507.318 311.038 507.042 310.58 506.812 310.199C506.604 309.845 506.439 309.564 506.312 309.349C506.202 309.156 506.149 309.055 506.157 309.051C506.165 309.047 506.233 309.139 506.358 309.322C506.496 309.53 506.675 309.802 506.902 310.144C507.143 310.517 507.432 310.965 507.771 311.489C508.105 312.026 508.502 312.638 509.011 313.285C509.503 313.946 510.049 314.678 510.644 315.477C511.265 316.259 511.995 317.064 512.748 317.954C513.478 318.865 514.4 319.711 515.316 320.663C516.215 321.634 517.292 322.528 518.386 323.505C519.453 324.515 520.725 325.387 521.977 326.384C522.595 326.894 523.299 327.314 523.983 327.788C524.677 328.246 525.369 328.737 526.1 329.193C526.846 329.626 527.604 330.066 528.375 330.513C528.762 330.733 529.144 330.97 529.544 331.181C529.949 331.382 530.358 331.584 530.769 331.788C531.595 332.189 532.419 332.625 533.279 333.014C534.151 333.377 535.034 333.745 535.929 334.117C536.813 334.517 537.757 334.794 538.692 335.123C539.634 335.433 540.572 335.799 541.56 336.031C542.54 336.293 543.53 336.558 544.53 336.825C545.546 337.023 546.571 337.223 547.606 337.425C551.76 338.132 556.136 338.445 560.603 338.214C565.065 337.914 569.371 337.085 573.411 335.892C574.414 335.569 575.408 335.249 576.393 334.932C577.354 334.549 578.306 334.169 579.247 333.793C580.201 333.445 581.088 332.971 581.987 332.552C582.877 332.115 583.781 331.728 584.612 331.226C585.456 330.75 586.29 330.281 587.112 329.817C587.919 329.329 588.687 328.798 589.459 328.302C589.843 328.051 590.225 327.802 590.603 327.554C590.976 327.298 591.326 327.017 591.685 326.753C592.397 326.218 593.098 325.691 593.787 325.174C594.459 324.635 595.088 324.066 595.723 323.529C596.346 322.978 596.995 322.478 597.548 321.898C598.672 320.759 599.833 319.743 600.773 318.614C601.743 317.514 602.707 316.499 603.485 315.428C604.282 314.375 605.098 313.426 605.715 312.435C606.357 311.462 606.987 310.576 607.511 309.726C608.008 308.862 608.462 308.071 608.873 307.356C609.301 306.654 609.624 305.999 609.892 305.426C610.166 304.866 610.401 304.386 610.596 303.988C610.78 303.621 610.927 303.33 611.039 303.107C611.139 302.908 611.196 302.808 611.204 302.812Z" fill="#263238"/>
<path d="M590.91 338.921C590.929 338.952 590.524 339.229 589.773 339.706C589.028 340.191 587.908 340.828 586.492 341.552C583.664 343.006 579.563 344.681 574.825 345.793C570.082 346.893 565.662 347.203 562.483 347.15C560.893 347.127 559.606 347.051 558.724 346.945C557.84 346.849 557.354 346.779 557.358 346.743C557.362 346.707 557.853 346.709 558.738 346.742C559.622 346.785 560.903 346.805 562.483 346.781C565.641 346.74 570.01 346.374 574.707 345.285C579.4 344.184 583.48 342.58 586.33 341.221C587.757 340.544 588.898 339.96 589.672 339.53C590.45 339.11 590.891 338.891 590.91 338.921Z" fill="#263238"/>
<path d="M311.978 300.587C311.986 300.591 311.946 300.697 311.86 300.902C311.76 301.131 311.629 301.429 311.464 301.805C311.281 302.21 311.061 302.698 310.804 303.268C310.55 303.85 310.241 304.514 309.824 305.226C309.424 305.951 308.98 306.753 308.496 307.628C307.982 308.49 307.362 309.387 306.728 310.373C306.119 311.377 305.31 312.339 304.519 313.406C303.746 314.491 302.787 315.52 301.819 316.634C300.882 317.778 299.722 318.808 298.598 319.962C298.044 320.549 297.395 321.057 296.771 321.615C296.135 322.16 295.505 322.736 294.831 323.283C294.14 323.808 293.436 324.342 292.722 324.885C292.362 325.153 292.01 325.437 291.636 325.697C291.256 325.948 290.872 326.201 290.486 326.456C289.71 326.959 288.939 327.496 288.127 327.992C287.3 328.462 286.461 328.939 285.612 329.421C284.777 329.93 283.867 330.323 282.971 330.766C282.066 331.192 281.173 331.672 280.212 332.025C279.263 332.406 278.304 332.791 277.336 333.18C276.343 333.502 275.341 333.826 274.33 334.154C270.256 335.365 265.91 336.205 261.405 336.507C256.894 336.74 252.478 336.421 248.289 335.7C247.246 335.494 246.212 335.291 245.188 335.089C244.18 334.817 243.182 334.548 242.195 334.282C241.198 334.045 240.254 333.674 239.305 333.359C238.362 333.025 237.412 332.742 236.523 332.336C235.623 331.957 234.734 331.583 233.857 331.215C232.992 330.819 232.163 330.377 231.333 329.969C230.92 329.762 230.509 329.556 230.102 329.352C229.7 329.138 229.316 328.897 228.927 328.674C228.153 328.22 227.392 327.773 226.643 327.333C225.909 326.87 225.215 326.372 224.519 325.906C223.833 325.426 223.128 324.998 222.509 324.48C221.256 323.468 219.983 322.581 218.917 321.556C217.824 320.564 216.75 319.655 215.854 318.67C214.941 317.704 214.025 316.844 213.301 315.92C212.555 315.016 211.832 314.198 211.221 313.404C210.637 312.592 210.102 311.848 209.618 311.176C209.121 310.518 208.735 309.895 208.414 309.348C208.091 308.813 207.815 308.355 207.585 307.974C207.377 307.62 207.212 307.339 207.085 307.124C206.975 306.931 206.922 306.83 206.93 306.826C206.938 306.822 207.006 306.914 207.131 307.098C207.269 307.306 207.448 307.578 207.675 307.92C207.916 308.293 208.205 308.741 208.544 309.265C208.878 309.802 209.275 310.414 209.784 311.061C210.277 311.722 210.822 312.454 211.417 313.253C212.038 314.035 212.768 314.84 213.521 315.73C214.251 316.641 215.173 317.487 216.089 318.439C216.989 319.41 218.065 320.304 219.159 321.281C220.226 322.291 221.498 323.163 222.75 324.16C223.368 324.67 224.072 325.09 224.756 325.564C225.45 326.022 226.142 326.513 226.873 326.969C227.619 327.402 228.377 327.842 229.148 328.289C229.535 328.509 229.917 328.746 230.317 328.957C230.722 329.158 231.131 329.36 231.542 329.564C232.368 329.965 233.192 330.401 234.052 330.79C234.924 331.153 235.807 331.521 236.702 331.893C237.586 332.293 238.529 332.57 239.465 332.899C240.407 333.209 241.345 333.575 242.333 333.807C243.313 334.069 244.303 334.333 245.303 334.601C246.319 334.799 247.344 334.999 248.379 335.201C252.533 335.908 256.909 336.221 261.376 335.99C265.838 335.69 270.144 334.861 274.184 333.668C275.187 333.345 276.181 333.025 277.166 332.708C278.127 332.324 279.079 331.945 280.02 331.569C280.974 331.222 281.862 330.747 282.76 330.328C283.65 329.891 284.554 329.504 285.385 329.002C286.229 328.526 287.063 328.057 287.885 327.593C288.692 327.105 289.46 326.574 290.232 326.079C290.616 325.828 290.998 325.579 291.377 325.331C291.75 325.075 292.1 324.794 292.459 324.53C293.171 323.995 293.872 323.468 294.561 322.95C295.233 322.411 295.862 321.842 296.497 321.305C297.12 320.754 297.769 320.254 298.322 319.674C299.446 318.535 300.607 317.519 301.547 316.39C302.517 315.29 303.481 314.275 304.259 313.204C305.056 312.15 305.872 311.202 306.489 310.211C307.131 309.238 307.761 308.352 308.285 307.502C308.781 306.638 309.236 305.847 309.647 305.132C310.075 304.43 310.398 303.775 310.666 303.202C310.94 302.642 311.175 302.162 311.37 301.764C311.554 301.397 311.701 301.106 311.813 300.883C311.914 300.683 311.97 300.583 311.978 300.587Z" fill="#263238"/>
<path d="M291.684 336.696C291.703 336.727 291.298 337.004 290.547 337.481C289.802 337.966 288.682 338.603 287.266 339.327C284.438 340.78 280.337 342.456 275.599 343.568C270.856 344.667 266.436 344.978 263.257 344.925C261.667 344.902 260.381 344.826 259.498 344.72C258.614 344.624 258.128 344.554 258.131 344.518C258.134 344.482 258.627 344.484 259.511 344.517C260.395 344.56 261.676 344.58 263.256 344.556C266.414 344.515 270.783 344.149 275.48 343.06C280.173 341.959 284.253 340.355 287.103 338.996C288.53 338.319 289.671 337.735 290.445 337.305C291.225 336.885 291.665 336.665 291.684 336.696Z" fill="#263238"/>
<path d="M525.01 178.694H323.323C313.9 178.694 306.262 171.055 306.262 161.633C306.262 152.21 313.901 144.572 323.323 144.572H525.01C534.433 144.572 542.071 152.211 542.071 161.633C542.071 171.055 534.432 178.694 525.01 178.694Z" fill="#FAFAFA"/>
<path d="M525.01 178.695C525.01 178.695 525.456 178.655 526.324 178.602C527.191 178.54 528.476 178.34 530.103 177.865C531.709 177.335 533.648 176.453 535.588 174.908C537.536 173.387 539.394 171.104 540.666 168.155C541.267 166.665 541.688 165.012 541.877 163.241C542.034 161.466 541.91 159.582 541.465 157.684C540.589 153.899 538.179 150.049 534.356 147.54C532.459 146.287 530.234 145.38 527.839 144.985C525.447 144.591 522.899 144.782 520.302 144.739C515.099 144.745 509.6 144.751 503.826 144.757C457.623 144.777 393.814 144.804 323.335 144.833C318.985 144.821 314.706 146.575 311.639 149.575C308.545 152.549 306.697 156.72 306.555 160.945C306.365 165.171 307.843 169.401 310.566 172.554C313.261 175.729 317.146 177.824 321.217 178.294C323.238 178.521 325.329 178.415 327.383 178.441C329.442 178.442 331.491 178.442 333.53 178.443C337.609 178.444 341.648 178.445 345.645 178.446C353.639 178.449 361.465 178.452 369.101 178.455C399.642 178.476 427.145 178.495 450.245 178.511C473.337 178.546 492.024 178.574 504.95 178.594C511.402 178.615 516.413 178.632 519.823 178.643C521.516 178.654 522.81 178.663 523.691 178.669C524.563 178.677 525.01 178.695 525.01 178.695C525.01 178.695 524.564 178.713 523.692 178.722C522.811 178.728 521.518 178.736 519.824 178.748C516.414 178.759 511.403 178.776 504.951 178.797C492.025 178.817 473.338 178.845 450.246 178.88C427.146 178.896 399.643 178.915 369.102 178.936C361.466 178.939 353.641 178.942 345.646 178.945C341.649 178.946 337.61 178.947 333.531 178.948C331.492 178.949 329.442 178.949 327.384 178.949C325.325 178.923 323.264 179.034 321.155 178.801C316.96 178.318 312.954 176.16 310.176 172.89C307.369 169.642 305.843 165.279 306.038 160.925C306.183 156.57 308.088 152.267 311.277 149.202C314.437 146.109 318.852 144.3 323.335 144.313C393.813 144.343 457.623 144.37 503.826 144.389C509.6 144.396 515.099 144.402 520.302 144.407C522.897 144.457 525.437 144.269 527.891 144.677C530.329 145.087 532.592 146.017 534.517 147.297C538.397 149.861 540.831 153.782 541.706 157.626C542.151 159.553 542.268 161.464 542.102 163.261C541.904 165.055 541.469 166.728 540.854 168.232C539.552 171.211 537.66 173.506 535.685 175.028C533.717 176.575 531.755 177.447 530.135 177.965C528.493 178.427 527.199 178.61 526.328 178.655C525.456 178.69 525.01 178.695 525.01 178.695Z" fill="#263238"/>
<path d="M436.045 174.638H323.419C316.236 174.638 310.414 168.815 310.414 161.633C310.414 154.45 316.237 148.628 323.419 148.628H436.045C443.228 148.628 449.05 154.451 449.05 161.633C449.051 168.815 443.228 174.638 436.045 174.638Z" fill="#407BFF"/>
<g opacity="0.4">
<path d="M327.181 174.638L343.344 148.627H360.661L344.828 174.638H327.181Z" fill="white"/>
</g>
<g opacity="0.4">
<path d="M361.904 174.638L378.066 148.627H395.383L379.551 174.638H361.904Z" fill="white"/>
</g>
<g opacity="0.4">
<path d="M399.177 174.638L415.339 148.627H432.657L416.824 174.638H399.177Z" fill="white"/>
</g>
<path d="M397.678 133.685C397.678 135.658 396.198 136.885 393.832 136.885H392.049V139.326H390V130.471H393.833C396.198 130.472 397.678 131.699 397.678 133.685ZM395.603 133.685C395.603 132.711 394.971 132.141 393.718 132.141H392.049V135.215H393.718C394.971 135.215 395.603 134.646 395.603 133.685Z" fill="#263238"/>
<path d="M404.772 139.327L403.065 136.86H402.963H401.18V139.327H399.13V130.472H402.963C405.328 130.472 406.809 131.699 406.809 133.685C406.809 135.013 406.138 135.987 404.987 136.48L406.973 139.326H404.772V139.327ZM402.849 132.141H401.18V135.228H402.849C404.102 135.228 404.734 134.646 404.734 133.685C404.734 132.711 404.102 132.141 402.849 132.141Z" fill="#263238"/>
<path d="M407.87 134.898C407.87 132.267 409.92 130.319 412.715 130.319C415.498 130.319 417.56 132.254 417.56 134.898C417.56 137.541 415.498 139.477 412.715 139.477C409.92 139.477 407.87 137.529 407.87 134.898ZM415.485 134.898C415.485 133.215 414.296 132.065 412.714 132.065C411.133 132.065 409.944 133.216 409.944 134.898C409.944 136.58 411.133 137.731 412.714 137.731C414.296 137.732 415.485 136.58 415.485 134.898Z" fill="#263238"/>
<path d="M418.544 134.898C418.544 132.229 420.594 130.319 423.351 130.319C424.882 130.319 426.16 130.876 426.995 131.887L425.68 133.101C425.085 132.418 424.339 132.064 423.453 132.064C421.796 132.064 420.619 133.227 420.619 134.897C420.619 136.566 421.796 137.73 423.453 137.73C424.339 137.73 425.085 137.376 425.68 136.68L426.995 137.894C426.16 138.918 424.883 139.475 423.339 139.475C420.593 139.477 418.544 137.567 418.544 134.898Z" fill="#263238"/>
<path d="M435.226 137.682V139.327H428.37V130.472H435.061V132.116H430.407V134.039H434.517V135.633H430.407V137.682H435.226Z" fill="#263238"/>
<path d="M436.161 138.452L436.856 136.909C437.602 137.453 438.715 137.832 439.778 137.832C440.993 137.832 441.486 137.427 441.486 136.883C441.486 135.226 436.338 136.364 436.338 133.075C436.338 131.57 437.553 130.318 440.07 130.318C441.183 130.318 442.322 130.584 443.144 131.102L442.511 132.658C441.689 132.19 440.841 131.963 440.057 131.963C438.843 131.963 438.374 132.418 438.374 132.975C438.374 134.607 443.522 133.481 443.522 136.732C443.522 138.212 442.295 139.477 439.765 139.477C438.362 139.477 436.945 139.06 436.161 138.452Z" fill="#263238"/>
<path d="M444.229 138.452L444.924 136.909C445.67 137.453 446.783 137.832 447.846 137.832C449.061 137.832 449.554 137.427 449.554 136.883C449.554 135.226 444.406 136.364 444.406 133.075C444.406 131.57 445.621 130.318 448.137 130.318C449.25 130.318 450.389 130.584 451.211 131.102L450.578 132.658C449.756 132.19 448.908 131.963 448.124 131.963C446.91 131.963 446.441 132.418 446.441 132.975C446.441 134.607 451.589 133.481 451.589 136.732C451.589 138.212 450.362 139.477 447.832 139.477C446.43 139.477 445.013 139.06 444.229 138.452Z" fill="#263238"/>
<path d="M689.694 471.81C689.694 471.954 548.789 472.07 375.015 472.07C201.18 472.07 60.3059 471.953 60.3059 471.81C60.3059 471.666 201.18 471.55 375.015 471.55C548.789 471.55 689.694 471.667 689.694 471.81Z" fill="#263238"/>
<path d="M75.355 447.275L85.15 426.297L108.039 439.418L96.151 458.64C96.151 458.64 86.899 460.284 82.787 457.754C78.674 455.223 75.355 447.275 75.355 447.275Z" fill="#FFBE9D"/>
<path d="M94.984 460.592L96.151 458.639C87.808 457.107 80.894 453.29 75.356 447.274L67.531 461.677L110.778 485.459C112.796 481.189 94.984 460.592 94.984 460.592Z" fill="#407BFF"/>
<path d="M67.53 461.678L69.441 458.16L110.275 482.327C110.275 482.327 111.74 484.223 110.776 485.46L67.53 461.678Z" fill="#263238"/>
<path d="M95.805 460.758C95.682 460.966 94.573 460.481 93.161 460.588C91.746 460.659 90.707 461.279 90.559 461.088C90.387 460.94 91.396 459.851 93.108 459.75C94.82 459.635 95.958 460.589 95.805 460.758Z" fill="#263238"/>
<path d="M99.3101 465.129C99.2461 465.36 98.1341 465.216 96.9251 465.715C95.7021 466.178 94.9901 467.044 94.7851 466.92C94.5681 466.844 95.1021 465.527 96.6171 464.936C98.1251 464.33 99.4161 464.925 99.3101 465.129Z" fill="#263238"/>
<path d="M98.9009 471.974C98.6839 471.914 98.9699 470.697 100.149 469.839C101.322 468.972 102.568 469.063 102.561 469.289C102.585 469.528 101.602 469.796 100.646 470.516C99.672 471.211 99.1219 472.069 98.9009 471.974Z" fill="#263238"/>
<path d="M77.7761 457.79C77.4201 458.411 76.6281 458.626 76.0081 458.27C75.3871 457.914 75.1731 457.123 75.5281 456.502C75.8841 455.881 76.6761 455.666 77.2961 456.022C77.9181 456.377 78.1321 457.169 77.7761 457.79Z" fill="#263238"/>
<path d="M178.472 455.847L189.814 431.916L212.91 432.282L201.07 455.575C201.07 455.575 193.434 461.499 188.479 461.163C183.524 460.827 178.472 455.847 178.472 455.847Z" fill="#FFBE9D"/>
<path d="M200.942 457.912L201.07 455.576C192.742 458.173 185.88 458.027 177.959 455.2C177.113 456.658 176.657 458.309 176.634 459.994L176.468 472.036L227.219 472.994C227.014 468.141 200.942 457.912 200.942 457.912Z" fill="#407BFF"/>
<path d="M176.468 472.037L176.525 467.919L225.264 470.382C225.264 470.382 227.505 471.408 227.22 472.994L176.468 472.037Z" fill="#263238"/>
<path d="M201.769 457.669C201.756 457.917 200.515 458.006 199.281 458.779C198.026 459.521 197.377 460.582 197.151 460.48C196.923 460.428 197.321 458.953 198.832 458.042C200.335 457.119 201.827 457.443 201.769 457.669Z" fill="#263238"/>
<path d="M207.051 459.971C207.103 460.212 206.022 460.613 205.16 461.645C204.268 462.652 204.034 463.781 203.788 463.766C203.554 463.801 203.41 462.346 204.506 461.083C205.59 459.811 207.05 459.735 207.051 459.971Z" fill="#263238"/>
<path d="M209.954 466.399C209.728 466.448 209.406 465.203 210.068 463.858C210.721 462.508 211.899 461.994 212 462.203C212.136 462.409 211.37 463.123 210.843 464.236C210.291 465.336 210.201 466.38 209.954 466.399Z" fill="#263238"/>
<path d="M183.936 463.595C183.909 464.331 183.291 464.905 182.556 464.878C181.821 464.851 181.246 464.233 181.273 463.498C181.3 462.762 181.918 462.188 182.653 462.215C183.389 462.241 183.963 462.859 183.936 463.595Z" fill="#263238"/>
<path d="M311.251 138.014C315.216 137.358 318.657 134.18 319.636 130.271C319.746 129.832 319.853 129.345 320.218 129.079C320.532 128.851 320.948 128.852 321.335 128.837C323.459 128.757 325.589 127.872 326.979 126.256C328.369 124.64 328.922 122.274 328.177 120.282C331.436 120.667 334.464 117.501 334.471 114.208C334.478 110.916 331.957 107.961 328.867 106.859C330.612 105.869 331.237 103.508 330.698 101.577C330.159 99.6452 328.698 98.1052 327.096 96.9072C324.941 95.2962 321.955 94.1602 319.605 95.4882C320.209 93.9462 319.227 92.2152 317.969 91.1482C314.596 88.2862 308.975 88.6392 305.962 91.9012C305.185 90.3952 304.152 88.9332 302.644 88.1672C301.136 87.4012 299.067 87.5392 297.995 88.8572C298.027 87.1832 296.674 85.8132 295.252 84.9402C294.226 84.3102 293.06 83.8132 291.856 83.8812C290.652 83.9492 289.425 84.7102 289.119 85.8802C287.54 84.1692 284.619 83.9362 282.779 85.3742C280.939 86.8122 280.449 89.7122 281.716 91.6672C279.682 91.7682 277.735 92.9902 276.753 94.7812C275.771 96.5722 275.787 98.8722 276.795 100.642C275.853 100.269 274.794 101.267 274.795 102.284C274.796 103.301 275.53 104.176 276.364 104.752C274.456 107.697 272.548 110.642 270.64 113.587C269.409 115.487 268.159 117.429 267.579 119.618C266.998 121.806 267.189 124.323 268.626 126.062" fill="#263238"/>
<path d="M316.703 129.475C320.943 122.106 318.035 110.009 310.527 106.101L284.901 95.3584L282.456 99.2144L250.63 148.8L268.192 175.036L281.457 158.815C281.457 158.815 291.444 163.281 301.112 152.724C305.921 147.473 311.993 137.662 316.703 129.475Z" fill="#FFBE9D"/>
<path d="M308.776 135.898C308.276 136.715 307.174 136.967 306.315 136.461C305.458 135.956 305.166 134.886 305.667 134.068C306.168 133.251 307.269 132.998 308.127 133.503C308.986 134.009 309.277 135.081 308.776 135.898Z" fill="#263238"/>
<path d="M311.316 133.1C310.999 133.173 310.42 131.569 308.798 130.499C307.193 129.407 305.451 129.456 305.407 129.14C305.379 128.995 305.805 128.765 306.573 128.73C307.332 128.691 308.443 128.901 309.449 129.574C310.454 130.249 311.055 131.185 311.29 131.89C311.534 132.604 311.467 133.073 311.316 133.1Z" fill="#263238"/>
<path d="M293.637 127.072C293.136 127.889 292.035 128.14 291.176 127.635C290.319 127.13 290.027 126.06 290.528 125.242C291.028 124.425 292.13 124.172 292.988 124.677C293.846 125.183 294.137 126.255 293.637 127.072Z" fill="#263238"/>
<path d="M295.011 123.222C294.694 123.295 294.113 121.69 292.493 120.621C290.888 119.529 289.146 119.577 289.102 119.261C289.075 119.116 289.498 118.885 290.268 118.851C291.027 118.812 292.138 119.021 293.144 119.695C294.149 120.37 294.75 121.306 294.986 122.012C295.227 122.726 295.16 123.195 295.011 123.222Z" fill="#263238"/>
<path d="M293.086 138.812C293.14 138.715 294.262 139.208 296.032 140.08C296.474 140.312 296.92 140.488 297.177 140.251C297.473 140.015 297.596 139.453 297.716 138.836C297.993 137.572 298.284 136.248 298.587 134.86C299.871 129.228 301.095 124.707 301.32 124.761C301.546 124.814 300.688 129.422 299.404 135.054C299.077 136.436 298.767 137.755 298.468 139.015C298.312 139.591 298.227 140.305 297.603 140.788C297.286 141.025 296.833 141.049 296.52 140.945C296.201 140.85 295.966 140.701 295.753 140.577C294.055 139.577 293.031 138.909 293.086 138.812Z" fill="#263238"/>
<path d="M281.457 158.815C281.457 158.815 273.225 154.089 268.532 144.176C268.532 144.176 266.678 154.947 279.151 161.634L281.457 158.815Z" fill="#EB996E"/>
<path d="M289.805 142.28C289.735 141.12 288.996 140.018 287.91 139.455C287.157 139.065 286.222 138.934 285.414 139.226C284.606 139.518 283.976 140.275 284.002 141.081C284.03 141.988 284.849 142.737 285.768 143.029C286.687 143.321 287.69 143.251 288.659 143.161C288.927 143.136 289.203 143.107 289.44 142.986C289.677 142.865 289.867 142.628 289.838 142.379" fill="#EB996E"/>
<path d="M287.576 136.777C287.85 136.936 286.684 138.705 287.358 140.957C288.027 143.211 290.032 144.256 289.882 144.512C289.834 144.639 289.238 144.578 288.433 144.075C287.639 143.587 286.673 142.585 286.26 141.207C285.851 139.829 286.136 138.541 286.556 137.777C286.977 136.995 287.463 136.687 287.576 136.777Z" fill="#263238"/>
<path d="M299.348 117.733C298.895 118.069 297.417 116.787 295.366 115.757C293.334 114.685 291.433 114.228 291.444 113.664C291.457 113.399 291.999 113.161 292.903 113.143C293.8 113.122 295.049 113.366 296.274 113.995C297.497 114.626 298.421 115.501 298.926 116.243C299.434 116.988 299.555 117.568 299.348 117.733Z" fill="#263238"/>
<path d="M313.839 127.995C313.309 128.175 312.448 127.052 311.118 126.144C309.821 125.189 308.477 124.749 308.471 124.188C308.481 123.925 308.905 123.673 309.633 123.652C310.353 123.627 311.36 123.885 312.263 124.525C313.165 125.166 313.742 126.031 313.958 126.719C314.18 127.414 314.084 127.898 313.839 127.995Z" fill="#263238"/>
<path d="M320.862 112.677C320.199 115.326 317.821 117.46 315.124 117.828C312.426 118.195 309.579 116.772 308.254 114.394C308.537 115.659 307.494 116.952 306.244 117.291C304.993 117.631 303.653 117.218 302.532 116.571C300.178 115.211 298.474 112.774 298.002 110.089C296.576 111.743 294.34 112.66 292.171 112.481C290.002 112.302 287.954 111.031 286.829 109.165C287.413 111.727 286.218 114.604 283.99 116C281.762 117.396 278.664 117.21 276.63 115.557C274.596 113.904 273.773 110.906 274.676 108.433C273.478 106.616 273.182 104.229 273.901 102.167C274.62 100.105 276.337 98.4166 278.406 97.7346C277.463 96.5856 277.403 94.8836 277.958 93.4986C278.513 92.1136 279.595 91.0026 280.763 90.0776C283.624 87.8126 287.325 86.4296 290.925 86.9536C294.525 87.4776 297.879 90.1696 298.584 93.7466C298.664 94.1506 298.728 94.5946 299.028 94.8746C299.439 95.2566 300.088 95.1576 300.636 95.0296C303.064 94.4626 305.632 93.8206 307.998 94.5936C310.855 95.5266 312.808 98.6626 312.396 101.651C315.391 100.159 319.404 100.613 321.572 103.153C323.74 105.692 323.288 110.211 320.381 111.869" fill="#263238"/>
<path d="M278.981 114.565C277.278 116.88 275.244 118.95 272.96 120.691C271.991 121.43 270.758 122.142 269.623 121.712C268.589 121.32 268.087 120.071 268.211 118.968C268.335 117.865 268.944 116.881 269.571 115.963C271.797 112.705 274.444 109.76 277.081 106.826" fill="#263238"/>
<path d="M275.181 114.734C275.083 114.565 270.634 108.728 266.553 114.681C262.473 120.634 269.26 123.492 269.388 123.329C269.515 123.165 275.181 114.734 275.181 114.734Z" fill="#FFBE9D"/>
<path d="M269.125 119.83C269.112 119.793 268.972 119.832 268.742 119.792C268.519 119.753 268.189 119.606 267.96 119.278C267.492 118.617 267.65 117.257 268.356 116.164C268.712 115.612 269.179 115.173 269.663 114.878C270.142 114.567 270.631 114.455 270.985 114.615C271.348 114.757 271.441 115.1 271.399 115.318C271.365 115.539 271.245 115.632 271.27 115.664C271.276 115.69 271.466 115.652 271.586 115.373C271.642 115.238 271.669 115.05 271.608 114.84C271.545 114.626 271.377 114.423 271.141 114.296C270.663 114.014 269.962 114.154 269.431 114.479C268.873 114.789 268.336 115.272 267.936 115.892C267.152 117.118 266.993 118.66 267.679 119.497C268.021 119.893 268.455 120.005 268.731 119.988C269.016 119.966 269.138 119.855 269.125 119.83Z" fill="#EB996E"/>
<path d="M298.499 108.701C298.494 108.707 298.546 108.765 298.654 108.872C298.761 108.98 298.927 109.132 299.15 109.323C299.599 109.699 300.282 110.242 301.278 110.724C301.775 110.962 302.354 111.183 303.013 111.307C303.668 111.436 304.413 111.473 305.18 111.299C305.942 111.128 306.72 110.771 307.395 110.195C308.056 109.617 308.611 108.781 308.729 107.791L308.426 107.83C309.088 109.589 310.397 111.297 312.244 112.454C313.161 113.038 314.211 113.469 315.333 113.701C315.894 113.812 316.483 113.872 317.079 113.805C317.673 113.743 318.276 113.523 318.763 113.142C319.343 112.701 319.752 112.1 320.064 111.491C320.379 110.878 320.608 110.245 320.819 109.621C321.026 108.992 321.191 108.346 321.206 107.683C321.229 107.031 321.028 106.312 320.514 105.869L320.263 106.107C321.097 107.127 322.258 107.77 323.426 108.027C324.597 108.296 325.781 108.211 326.805 107.855C327.825 107.49 328.685 106.85 329.241 106.083C329.811 105.323 330.141 104.494 330.303 103.724C330.625 102.166 330.292 100.89 329.95 100.125C329.593 99.3494 329.254 99.0254 329.254 99.0254C329.223 99.0464 329.528 99.3984 329.844 100.171C330.146 100.934 330.433 102.18 330.093 103.68C329.922 104.421 329.59 105.211 329.037 105.927C328.497 106.651 327.679 107.24 326.71 107.578C325.737 107.905 324.609 107.976 323.501 107.713C322.393 107.462 321.307 106.845 320.535 105.893L320.284 106.132C320.701 106.496 320.873 107.082 320.853 107.681C320.839 108.284 320.682 108.902 320.479 109.511C320.057 110.718 319.584 112.043 318.544 112.855C317.664 113.555 316.463 113.564 315.404 113.349C314.328 113.128 313.317 112.717 312.431 112.158C310.646 111.05 309.372 109.409 308.72 107.719L308.489 107.119L308.418 107.758C308.318 108.656 307.821 109.43 307.206 109.98C306.58 110.526 305.845 110.877 305.123 111.049C304.399 111.224 303.691 111.202 303.053 111.089C302.414 110.981 301.847 110.779 301.354 110.558C300.367 110.111 299.673 109.597 299.209 109.248C298.748 108.892 298.512 108.686 298.499 108.701Z" fill="white"/>
<path d="M318.746 118.336C318.728 118.348 318.807 118.522 319.021 118.792C319.233 119.061 319.597 119.419 320.142 119.723C320.685 120.016 321.417 120.282 322.275 120.19C322.695 120.135 323.165 119.96 323.479 119.562C323.779 119.187 323.944 118.602 323.67 118.094L323.368 118.297C323.395 118.328 323.424 118.361 323.453 118.395C324.733 119.911 326.596 120.4 327.834 120.354C328.465 120.339 328.968 120.227 329.298 120.111C329.629 119.994 329.798 119.898 329.79 119.878C329.77 119.807 329.05 120.132 327.837 120.095C326.653 120.074 324.919 119.568 323.732 118.159C323.705 118.128 323.678 118.097 323.653 118.068L322.486 116.729L323.351 118.272C323.535 118.6 323.433 119.045 323.199 119.342C322.969 119.645 322.593 119.803 322.229 119.859C321.484 119.959 320.779 119.744 320.259 119.496C319.201 118.968 318.796 118.287 318.746 118.336Z" fill="white"/>
<path d="M304.863 128.488C304.873 128.547 305.398 128.454 306.237 128.503C307.07 128.547 308.231 128.78 309.329 129.422C310.427 130.065 311.199 130.964 311.646 131.669C312.099 132.377 312.275 132.88 312.332 132.86C312.371 132.85 312.281 132.309 311.868 131.537C311.463 130.77 310.679 129.789 309.514 129.107C308.35 128.426 307.111 128.223 306.244 128.245C305.368 128.262 304.852 128.449 304.863 128.488Z" fill="#EB996E"/>
<path d="M289.006 117.919C289.016 117.976 289.442 117.911 290.117 117.958C290.788 118.001 291.72 118.192 292.603 118.707C293.486 119.222 294.113 119.938 294.481 120.502C294.855 121.067 295.008 121.469 295.063 121.45C295.103 121.439 295.036 120.998 294.702 120.369C294.375 119.745 293.736 118.945 292.787 118.392C291.838 117.839 290.828 117.677 290.124 117.701C289.413 117.719 288.996 117.878 289.006 117.919Z" fill="#EB996E"/>
<path d="M285.736 136.438C285.77 136.48 285.916 136.403 286.156 136.355C286.394 136.304 286.735 136.297 287.095 136.391C287.816 136.603 288.393 136.975 288.453 136.869C288.496 136.807 288.035 136.296 287.188 136.038C286.759 135.924 286.336 135.98 286.073 136.111C285.804 136.24 285.705 136.405 285.736 136.438Z" fill="#EB996E"/>
<path d="M284.022 136.561C284.1 136.63 284.524 136.26 285.097 135.898C285.667 135.53 286.18 135.302 286.151 135.201C286.129 135.107 285.524 135.19 284.902 135.59C284.279 135.987 283.947 136.501 284.022 136.561Z" fill="#EB996E"/>
<path d="M264.14 119.016C264.14 118.98 263.626 118.911 262.714 119.073C261.816 119.237 260.472 119.64 259.18 120.741C257.896 121.813 256.797 123.755 256.887 126.037C256.915 128.309 258.471 130.75 260.93 131.736C262.152 132.243 263.514 132.279 264.7 131.964C265.895 131.659 266.943 131.06 267.791 130.33C269.5 128.862 270.32 126.799 270.234 125.1C270.17 123.389 269.441 122.143 268.838 121.451C268.223 120.744 267.738 120.526 267.723 120.554C267.681 120.605 268.102 120.9 268.619 121.624C269.128 122.333 269.732 123.537 269.727 125.107C269.743 126.655 268.951 128.505 267.363 129.826C265.825 131.13 263.388 131.989 261.201 131.07C259.014 130.186 257.609 128.04 257.55 126.007C257.437 123.95 258.373 122.161 259.521 121.12C260.678 120.05 261.927 119.587 262.777 119.347C263.638 119.106 264.145 119.078 264.14 119.016Z" fill="#455A64"/>
<path d="M159.276 239.297C141.102 253.404 138.337 275.792 137.095 288.627C135.853 301.462 125.916 352.802 125.916 352.802C125.916 352.802 105.147 385.055 97.694 398.718C90.241 412.381 75.356 440.926 75.356 440.926L100.245 456.311C100.245 456.311 144.961 395.448 152.827 383.441C160.694 371.434 200.821 270.322 200.821 270.322L159.276 239.297Z" fill="#263238"/>
<path d="M218.443 272.57C219.69 274.969 252.695 356.41 251.838 364.554C250.981 372.698 209.832 456.31 209.832 456.31L179.399 443.423L210.689 373.984L211.546 364.44L182.399 309.26L191.829 268.54L218.443 272.57Z" fill="#263238"/>
<path d="M196.764 283.261C196.896 283.318 193.451 291.51 189.07 301.555C184.688 311.604 181.03 319.701 180.898 319.643C180.766 319.586 184.211 311.396 188.593 301.347C192.974 291.302 196.633 283.204 196.764 283.261Z" fill="#455A64"/>
<path d="M222.943 367.25C222.991 367.366 220.355 367.995 217.19 367.215C214.016 366.465 211.958 364.703 212.054 364.622C212.141 364.481 214.259 365.992 217.312 366.709C220.355 367.463 222.93 367.085 222.943 367.25Z" fill="#455A64"/>
<path d="M221.635 375.258C221.578 375.404 219.381 374.593 216.56 374.093C213.741 373.575 211.4 373.567 211.397 373.411C211.385 373.28 213.768 373.052 216.652 373.58C219.538 374.093 221.692 375.139 221.635 375.258Z" fill="#455A64"/>
<path d="M167.309 254.557C167.33 254.586 167.119 254.77 166.717 255.079C166.319 255.392 165.712 255.804 164.938 256.276C163.393 257.221 161.124 258.332 158.467 259.132C155.807 259.925 153.301 260.245 151.491 260.306C150.585 260.338 149.852 260.328 149.347 260.285C148.842 260.248 148.564 260.21 148.566 260.174C148.568 260.089 149.684 260.094 151.468 259.938C153.251 259.784 155.703 259.412 158.318 258.632C160.93 257.845 163.182 256.807 164.756 255.955C166.331 255.105 167.26 254.487 167.309 254.557Z" fill="#455A64"/>
<path d="M274.141 171.537L300.769 205.918L356.627 228.797L350.683 240.715L279.276 216.338L255.897 168.407L274.141 171.537Z" fill="#455A64"/>
<g opacity="0.2">
<path d="M274.141 171.537L300.769 205.918L356.627 228.797L350.683 240.715L279.276 216.338L255.897 168.407L274.141 171.537Z" fill="black"/>
</g>
<path d="M248.229 151.185C247.084 150.035 247.035 148.193 248.116 146.983L251.757 142.912C252.244 142.263 253.156 142.119 253.814 142.595C258.882 146.262 278.075 160.832 278.034 165.007C277.987 169.735 269.849 174.49 269.849 174.49L248.229 151.185Z" fill="#455A64"/>
<path d="M235.532 176.621C235.532 176.621 271.195 225.897 280.49 231.589C289.785 237.281 348.189 245.297 348.189 245.297L350.455 228.022L294.128 209.961C294.128 209.961 257.378 155.797 256.438 154.24C255.499 152.683 248.248 146.832 240.245 147.851C232.242 148.87 228.188 161.496 230.945 167.749C231.995 170.129 235.532 176.621 235.532 176.621Z" fill="#455A64"/>
<path d="M248.464 147.914C248.464 147.914 238.199 143.496 228.353 152.685C223.081 157.606 174.845 225.192 171.445 229.727L157.589 239.297C180.766 260.641 198.728 278.489 223.454 284.69L236.329 242.921L275.897 206.905L248.464 147.914Z" fill="#455A64"/>
<path d="M231.678 171.538C231.693 171.528 231.816 171.688 232.036 171.999C232.283 172.361 232.594 172.816 232.976 173.375C233.776 174.58 234.961 176.305 236.452 178.417C239.425 182.647 243.725 188.352 248.711 194.466C253.703 200.579 258.376 205.988 261.749 209.911C263.397 211.836 264.746 213.414 265.733 214.567C266.166 215.087 266.518 215.512 266.799 215.849C267.038 216.146 267.157 216.307 267.144 216.319C267.13 216.331 266.985 216.193 266.72 215.918C266.421 215.598 266.044 215.195 265.581 214.701C264.563 213.575 263.171 212.034 261.472 210.154C258.027 206.292 253.307 200.917 248.308 194.795C243.314 188.672 239.05 182.918 236.15 178.626C234.696 176.483 233.555 174.724 232.807 173.484C232.458 172.903 232.174 172.43 231.949 172.054C231.756 171.725 231.663 171.547 231.678 171.538Z" fill="#263238"/>
<path d="M350.455 228.022C350.453 228.029 350.357 228.005 350.172 227.95C349.966 227.886 349.696 227.802 349.353 227.695C348.609 227.453 347.552 227.11 346.195 226.669C343.421 225.747 339.425 224.418 334.424 222.756C324.373 219.372 310.289 214.631 294.047 209.164L293.967 209.137L293.919 209.067C290.272 203.68 286.361 197.904 282.327 191.945C276.132 182.773 270.23 174.036 264.861 166.086C262.182 162.11 259.636 158.331 257.252 154.794C256.64 153.917 256.112 153.009 255.445 152.259C255.123 151.868 254.738 151.545 254.358 151.225C253.973 150.912 253.627 150.553 253.221 150.286C251.62 149.159 249.844 148.49 248.097 148.115C244.558 147.559 241.213 148.334 238.766 149.783C236.284 151.213 234.642 153.15 233.629 154.881C233.226 155.8 232.755 156.577 232.594 157.343C232.369 158.086 232.167 158.714 232.132 159.248C232.001 160.139 231.937 160.571 231.895 160.857C231.861 160.855 231.912 160.298 232.028 159.232C232.046 158.691 232.233 158.054 232.445 157.297C232.594 156.518 233.054 155.724 233.451 154.783C234.451 153.01 236.1 151.015 238.619 149.531C241.102 148.03 244.516 147.203 248.16 147.753C249.959 148.125 251.795 148.805 253.452 149.958C253.872 150.232 254.231 150.598 254.629 150.919C255.022 151.248 255.42 151.579 255.758 151.984C256.464 152.774 256.999 153.687 257.61 154.554C260.006 158.083 262.566 161.853 265.259 165.819C270.639 173.762 276.552 182.49 282.759 191.654C286.788 197.617 290.694 203.396 294.336 208.786L294.209 208.689C310.428 214.227 324.49 219.028 334.527 222.455C339.507 224.177 343.487 225.552 346.25 226.508C347.595 226.983 348.643 227.353 349.381 227.614C349.718 227.738 349.984 227.835 350.186 227.91C350.367 227.976 350.457 228.015 350.455 228.022Z" fill="#263238"/>
<path d="M255.897 205.919C255.923 205.943 255.738 206.184 255.379 206.598C255.024 207.017 254.472 207.588 253.757 208.26C252.331 209.607 250.186 211.302 247.57 212.779C244.95 214.25 242.387 215.204 240.496 215.724C239.55 215.986 238.776 216.162 238.234 216.248C237.693 216.34 237.392 216.373 237.385 216.338C237.367 216.254 238.544 215.979 240.389 215.372C242.234 214.767 244.733 213.774 247.315 212.325C249.892 210.87 252.038 209.249 253.512 207.985C254.989 206.724 255.834 205.86 255.897 205.919Z" fill="#263238"/>
<path d="M232.918 235.715C232.921 235.751 232.303 235.832 231.181 235.949C230.06 236.075 228.429 236.183 226.412 236.247C222.379 236.38 216.779 236.191 210.685 235.229C204.591 234.254 199.208 232.698 195.415 231.32C193.517 230.634 192 230.026 190.973 229.559C189.942 229.1 189.38 228.831 189.394 228.798C189.408 228.765 189.998 228.971 191.049 229.371C192.097 229.78 193.629 230.333 195.535 230.972C199.343 232.255 204.708 233.745 210.766 234.714C216.824 235.67 222.386 235.917 226.404 235.878C228.414 235.862 230.042 235.81 231.165 235.746C232.291 235.692 232.915 235.679 232.918 235.715Z" fill="#263238"/>
<path d="M234.287 229.659C234.301 229.719 233.25 230.047 231.498 230.349C229.749 230.653 227.29 230.886 224.574 230.781C221.858 230.67 219.425 230.241 217.705 229.799C215.983 229.358 214.961 228.947 214.98 228.889C215.004 228.81 216.06 229.095 217.786 229.44C219.51 229.787 221.916 230.151 224.595 230.261C227.273 230.365 229.7 230.193 231.446 229.985C233.193 229.779 234.269 229.579 234.287 229.659Z" fill="#263238"/>
<g opacity="0.2">
<path d="M237.885 180.783L253.874 207.912C253.874 207.912 244.888 214.326 241.136 215.332C241.136 215.332 249.371 213.045 255.896 209.802L264.329 213.617L237.885 180.783Z" fill="black"/>
</g>
<g opacity="0.2">
<path d="M228.21 235.894C222.916 238.75 216.234 239.888 209.957 239.003C203.68 238.118 197.876 235.218 194.103 231.083C194.103 231.083 207.155 234.629 212.168 235.19C217.181 235.751 228.21 235.894 228.21 235.894Z" fill="black"/>
</g>
<path d="M175.063 241.985C175.102 242.146 172.566 242.499 170.021 244.2C168.249 245.339 167.047 246.75 166.462 247.448L166.263 247.304C166.557 246.97 166.733 246.804 166.769 246.83C166.805 246.856 166.696 247.073 166.46 247.45L166.261 247.306C166.718 246.503 167.888 244.95 169.735 243.763C172.402 241.988 175.083 241.858 175.063 241.985Z" fill="#263238"/>
<path d="M188.239 252.686C188.35 252.757 187.082 254.768 184.945 256.747C182.817 258.737 180.72 259.856 180.657 259.74C180.574 259.609 182.508 258.315 184.59 256.366C186.684 254.429 188.114 252.593 188.239 252.686Z" fill="#263238"/>
<path d="M202.157 264.403C202.275 264.46 201.196 266.679 199.201 268.946C197.217 271.224 195.162 272.587 195.089 272.477C194.993 272.354 196.868 270.834 198.809 268.602C200.764 266.385 202.022 264.324 202.157 264.403Z" fill="#263238"/>
<path d="M216.788 270.249C216.916 270.254 216.722 272.702 215.475 275.419C214.247 278.146 212.531 279.902 212.442 279.808C212.317 279.709 213.81 277.852 215 275.203C216.213 272.567 216.631 270.22 216.788 270.249Z" fill="#263238"/>
<path d="M251.953 149.251C251.895 149.223 252 148.828 252.326 148.254C252.65 147.685 253.244 146.946 254.102 146.389C254.959 145.833 255.835 145.556 256.462 145.4C257.095 145.25 257.497 145.221 257.514 145.287C257.571 145.462 255.986 145.827 254.387 146.824C252.797 147.855 252.106 149.345 251.953 149.251Z" fill="#263238"/>
<path d="M258.945 156.116C258.821 156.07 259.488 154.483 261.066 153.138C262.634 151.779 264.302 151.358 264.329 151.487C264.386 151.633 262.884 152.246 261.405 153.533C259.913 154.8 259.08 156.194 258.945 156.116Z" fill="#263238"/>
<path d="M272.688 159.01C272.807 159.061 271.805 161.18 269.775 163.186C267.758 165.206 265.635 166.197 265.584 166.078C265.503 165.941 267.453 164.777 269.407 162.817C271.377 160.872 272.552 158.928 272.688 159.01Z" fill="#263238"/>
<path d="M349.688 228.779L357.768 217.697L363.752 216.387L376.678 213.757C376.678 213.757 378.183 214.654 376.359 216.916L375.315 217.768L380.328 217.636C380.328 217.636 380.621 220.006 378.039 221.341L369.6 223.786L366.418 224.741C366.418 224.741 373.074 225.201 375.392 224.371C377.71 223.541 379.77 223.643 379.77 223.643C379.77 223.643 381.165 225.061 379.44 226.908C377.715 228.755 372.659 229.308 371.458 229.612C370.257 229.916 365.991 230.017 365.991 230.017C365.991 230.017 367.686 231.146 370.561 231.117C373.436 231.088 376.406 231.176 376.406 231.176C376.406 231.176 376.554 233.918 374.798 234.452C373.042 234.985 365.29 234.84 365.29 234.84L363.151 236.007C363.151 236.007 357.436 242.025 355.434 242.887C353.432 243.749 348.189 245.294 348.189 245.294L349.688 228.779Z" fill="#FFBE9D"/>
<path d="M375.985 217.924C376.01 217.984 375.283 218.361 374.043 218.813C372.805 219.266 371.042 219.767 369.049 220.081C367.055 220.392 365.223 220.454 363.906 220.403C362.587 220.352 361.781 220.216 361.786 220.151C361.793 219.988 365.04 220.197 368.969 219.566C372.9 218.964 375.928 217.771 375.985 217.924Z" fill="#EB996E"/>
<path d="M479.806 431.398C479.806 431.398 458.525 406.905 450.495 382.412C442.465 357.919 446.279 360.73 446.279 360.73C446.279 360.73 457.12 384.523 465.351 396.015C473.582 407.507 488.238 424.371 488.238 424.371L479.806 431.398Z" fill="#455A64"/>
<path d="M484.047 364.546C483.361 363.35 481.533 363.971 481.739 365.335C483.036 373.938 485.841 394.128 485.731 407.222C485.588 424.233 485.736 430.808 485.736 430.808H494.593C494.593 430.808 493.021 395.643 491.019 384.922C489.617 377.405 486.638 369.059 484.047 364.546Z" fill="#455A64"/>
<path d="M488.876 427.949C488.876 427.949 494.451 416.227 496.166 401.504C496.895 395.242 495.594 386.78 493.658 375.488C492.72 370.018 492.508 365.856 492.538 362.97C492.561 360.789 495.439 360.077 496.506 361.979C497.575 363.887 500.669 370.403 501.454 374.488C503.598 385.638 506.028 391.213 504.17 401.791C502.312 412.369 495.45 428.665 495.45 428.665L488.876 427.949Z" fill="#455A64"/>
<path d="M496.854 428.664C496.854 428.664 520.219 378.452 521.838 371.002C523.458 363.553 528.963 346.387 529.611 347.358C530.259 348.33 531.231 357.398 527.02 367.763C522.809 378.127 504.832 430.193 504.832 430.193H496.854" fill="#455A64"/>
<path d="M486.317 426.417C486.307 426.431 486.081 426.275 485.662 425.967C485.247 425.653 484.618 425.211 483.852 424.585C482.297 423.363 480.114 421.504 477.573 419.042C472.472 414.144 466.125 406.592 460.622 397.285C455.107 387.981 451.398 378.881 449.051 372.22C447.876 368.885 447.018 366.155 446.462 364.259C446.176 363.313 445.98 362.571 445.842 362.069C445.707 361.566 445.644 361.3 445.661 361.295C445.677 361.29 445.773 361.547 445.938 362.04C446.114 362.577 446.351 363.297 446.647 364.201C447.259 366.078 448.167 368.787 449.382 372.1C451.81 378.718 455.558 387.764 461.05 397.03C466.53 406.298 472.801 413.845 477.82 418.79C480.321 421.275 482.461 423.169 483.975 424.434C484.72 425.081 485.329 425.547 485.724 425.887C486.123 426.222 486.328 426.404 486.317 426.417Z" fill="#263238"/>
<path d="M488.874 402.329C488.84 402.331 488.767 401.806 488.664 400.856C488.553 399.816 488.408 398.462 488.233 396.831C487.863 393.434 487.286 388.749 486.46 383.603C485.631 378.456 484.71 373.826 483.997 370.484C483.651 368.881 483.364 367.549 483.144 366.527C482.943 365.592 482.848 365.071 482.881 365.062C482.914 365.054 483.073 365.559 483.332 366.48C483.594 367.401 483.94 368.742 484.34 370.406C485.143 373.733 486.12 378.364 486.952 383.524C487.779 388.683 488.302 393.386 488.583 396.797C488.724 398.503 488.816 399.885 488.856 400.841C488.901 401.797 488.908 402.327 488.874 402.329Z" fill="#263238"/>
<path d="M494.347 361.585C494.363 361.579 494.458 361.799 494.623 362.223C494.8 362.696 495.033 363.315 495.323 364.088C495.632 364.897 495.987 365.895 496.326 367.078C496.674 368.257 497.124 369.586 497.462 371.098C497.647 371.852 497.84 372.64 498.041 373.459C498.237 374.281 498.376 375.151 498.555 376.044C498.937 377.827 499.172 379.76 499.456 381.789C499.913 385.86 500.162 390.367 500.014 395.096C499.824 399.825 499.252 404.304 498.505 408.332C498.077 410.336 497.703 412.247 497.195 413.998C496.952 414.876 496.752 415.733 496.497 416.539C496.238 417.342 495.989 418.114 495.751 418.853C495.305 420.337 494.761 421.63 494.33 422.782C493.908 423.938 493.482 424.907 493.116 425.692C492.771 426.442 492.495 427.044 492.284 427.502C492.089 427.913 491.979 428.126 491.963 428.118C491.947 428.111 492.027 427.884 492.192 427.46C492.381 426.993 492.628 426.38 492.937 425.615C493.275 424.821 493.673 423.843 494.069 422.682C494.474 421.525 494.993 420.229 495.415 418.744C495.642 418.006 495.88 417.234 496.127 416.431C496.371 415.626 496.561 414.77 496.794 413.894C497.283 412.147 497.639 410.242 498.053 408.246C498.772 404.234 499.326 399.78 499.515 395.078C499.662 390.376 499.428 385.894 498.999 381.842C498.729 379.822 498.51 377.897 498.148 376.119C497.979 375.229 497.85 374.361 497.664 373.541C497.475 372.722 497.293 371.935 497.119 371.183C496.804 369.672 496.379 368.341 496.058 367.158C495.747 365.971 495.419 364.968 495.139 364.151C494.886 363.366 494.683 362.737 494.528 362.258C494.394 361.823 494.331 361.591 494.347 361.585Z" fill="#263238"/>
<path d="M529.344 348.368C529.352 348.369 529.346 348.446 529.326 348.593C529.298 348.769 529.264 348.984 529.222 349.245C529.119 349.816 528.99 350.664 528.761 351.744C528.31 353.904 527.558 357.013 526.389 360.784C525.225 364.556 523.629 368.979 521.736 373.838C519.851 378.699 517.66 383.995 515.586 389.633C513.48 395.262 511.857 400.755 510.332 405.74C508.821 410.729 507.388 415.207 506.002 418.904C504.63 422.606 503.31 425.522 502.313 427.491C501.835 428.486 501.404 429.228 501.127 429.738C500.996 429.968 500.889 430.157 500.8 430.312C500.724 430.44 500.681 430.503 500.674 430.499C500.666 430.495 500.694 430.423 500.756 430.287C500.832 430.126 500.925 429.93 501.039 429.69C501.287 429.165 501.689 428.411 502.139 427.406C503.08 425.416 504.346 422.49 505.672 418.782C507.011 415.08 508.407 410.602 509.893 405.606C511.393 400.617 513.006 395.104 515.118 389.459C517.197 383.808 519.402 378.516 521.308 373.668C523.222 368.824 524.849 364.424 526.052 360.676C527.261 356.929 528.062 353.844 528.571 351.701C528.828 350.63 528.988 349.79 529.123 349.225C529.184 348.967 529.234 348.756 529.275 348.582C529.312 348.44 529.335 348.366 529.344 348.368Z" fill="#263238"/>
<path d="M457.295 337.277C455.822 335.814 453.374 337.344 453.983 339.328C454.601 341.34 455.537 343.942 456.919 346.878C460.131 353.704 469.567 378.197 473.984 391.648C478.401 405.099 484.624 430.194 484.624 430.194L494.056 428.664C494.056 428.664 485.427 387.432 476.995 372.575C470.22 360.639 463.445 343.388 457.295 337.277Z" fill="#455A64"/>
<path d="M476.565 400.06C476.598 400.049 476.769 400.451 477.051 401.19C477.33 401.93 477.71 403.01 478.138 404.357C479.007 407.047 480.069 410.805 481.141 414.98C482.209 419.157 483.099 422.956 483.719 425.711C484.002 427.014 484.24 428.109 484.429 428.979C484.586 429.753 484.658 430.185 484.624 430.193C484.591 430.201 484.456 429.785 484.24 429.025C484.01 428.165 483.721 427.082 483.376 425.794C482.655 422.957 481.706 419.228 480.657 415.104C479.587 410.934 478.58 407.169 477.8 404.459C477.428 403.18 477.115 402.106 476.866 401.252C476.642 400.496 476.533 400.072 476.565 400.06Z" fill="#263238"/>
<path d="M489.362 429.428C489.353 429.429 489.335 429.343 489.309 429.177C489.281 428.981 489.246 428.737 489.202 428.434C489.103 427.782 489.015 426.814 488.816 425.578C488.47 423.1 487.852 419.53 486.839 415.174C485.832 410.817 484.364 405.692 482.424 400.106C480.489 394.518 478.063 388.48 475.313 382.232C469.764 369.75 464.221 358.678 460.579 350.491C458.738 346.407 457.312 343.073 456.374 340.75C455.895 339.593 455.553 338.682 455.314 338.067C455.207 337.781 455.121 337.549 455.052 337.364C454.996 337.205 454.971 337.121 454.979 337.118C454.987 337.115 455.028 337.192 455.1 337.345C455.181 337.526 455.282 337.751 455.408 338.029C455.685 338.669 456.068 339.553 456.554 340.674C457.547 342.972 459.02 346.281 460.901 350.343C464.623 358.486 470.214 369.528 475.771 382.029C478.525 388.287 480.944 394.344 482.86 399.954C484.781 405.563 486.218 410.714 487.184 415.093C488.156 419.471 488.723 423.06 489.01 425.55C489.18 426.792 489.237 427.765 489.304 428.421C489.327 428.726 489.346 428.972 489.362 429.169C489.37 429.341 489.371 429.428 489.362 429.428Z" fill="#263238"/>
<path d="M494.056 428.664C494.022 428.668 493.91 428.104 493.738 427.079C493.55 425.971 493.303 424.51 493.004 422.743C492.354 419.089 491.362 414.056 489.935 408.578C488.522 403.094 486.931 398.216 485.707 394.713C485.106 393.025 484.609 391.628 484.232 390.57C483.879 389.593 483.698 389.047 483.73 389.034C483.762 389.021 484.003 389.543 484.413 390.499C484.819 391.456 485.387 392.85 486.039 394.592C487.351 398.072 489.001 402.95 490.418 408.452C491.85 413.948 492.79 419.009 493.352 422.685C493.62 424.526 493.826 426.016 493.93 427.052C494.044 428.086 494.09 428.66 494.056 428.664Z" fill="#263238"/>
<path d="M513.415 427.309H476.6V472.163H513.415V427.309Z" fill="#407BFF"/>
<g opacity="0.3">
<path d="M513.415 427.309H476.6V472.163H513.415V427.309Z" fill="black"/>
</g>
<path d="M501.671 427.309H469.009V472.163H501.671V427.309Z" fill="#407BFF"/>
</svg>
