<svg width="45" height="24" viewBox="0 0 45 24" fill="none" xmlns="http://www.w3.org/2000/svg">
<path fill-rule="evenodd" clip-rule="evenodd" d="M12 1.5C9.10051 1.5 6.75 3.85051 6.75 6.75V9.75C5.09315 9.75 3.75 11.0931 3.75 12.75V19.5C3.75 21.1569 5.09315 22.5 6.75 22.5H17.25C18.9069 22.5 20.25 21.1569 20.25 19.5V12.75C20.25 11.0931 18.9069 9.75 17.25 9.75V6.75C17.25 3.85051 14.8995 1.5 12 1.5ZM15.75 9.75V6.75C15.75 4.67893 14.0711 3 12 3C9.92893 3 8.25 4.67893 8.25 6.75V9.75H15.75Z" fill="#0F172A"/>
<path fill-rule="evenodd" clip-rule="evenodd" d="M33.0001 3.75C31.6233 3.75 30.3448 4.16143 29.2782 4.86788C28.9328 5.09661 28.4674 5.00207 28.2387 4.65674C28.01 4.3114 28.1045 3.84603 28.4499 3.61731C29.7545 2.7532 31.3197 2.25 33.0001 2.25C37.5564 2.25 41.2501 5.94365 41.2501 10.5C41.2501 13.5153 40.676 16.3983 39.63 19.0442C39.4777 19.4294 39.042 19.6182 38.6568 19.466C38.2716 19.3137 38.0828 18.8779 38.235 18.4927C39.2128 16.0196 39.7501 13.3235 39.7501 10.5C39.7501 6.77208 36.728 3.75 33.0001 3.75ZM27.1568 5.73863C27.5022 5.96735 27.5967 6.43272 27.368 6.77806C26.6615 7.84469 26.2501 9.12316 26.2501 10.5C26.2501 12.1132 25.7867 13.6204 24.9847 14.893C24.7639 15.2434 24.3008 15.3485 23.9503 15.1276C23.5999 14.9068 23.4948 14.4437 23.7157 14.0933C24.371 13.0533 24.7501 11.8222 24.7501 10.5C24.7501 8.81959 25.2533 7.25443 26.1174 5.94977C26.3461 5.60444 26.8115 5.5099 27.1568 5.73863ZM33.0001 7.5C31.3432 7.5 30.0001 8.84315 30.0001 10.5C30.0001 13.5997 28.8241 16.4266 26.8947 18.5556C26.6166 18.8626 26.1423 18.8859 25.8354 18.6077C25.5284 18.3296 25.5051 17.8553 25.7832 17.5484C27.4723 15.6845 28.5001 13.2132 28.5001 10.5C28.5001 8.01472 30.5148 6 33.0001 6C35.4854 6 37.5001 8.01472 37.5001 10.5C37.5001 11.0472 37.4779 11.5897 37.4335 12.1264C37.3994 12.5392 37.0371 12.8462 36.6243 12.8121C36.2115 12.778 35.9045 12.4157 35.9386 12.0029C35.9795 11.5078 36.0001 11.0066 36.0001 10.5C36.0001 8.84315 34.657 7.5 33.0001 7.5ZM33.0004 9.75C33.4146 9.75 33.7504 10.0858 33.7504 10.5C33.7504 14.4082 32.326 17.9855 29.969 20.7384C29.6996 21.053 29.2261 21.0897 28.9115 20.8203C28.5968 20.5509 28.5602 20.0775 28.8296 19.7628C30.9627 17.2715 32.2504 14.0371 32.2504 10.5C32.2504 10.0858 32.5862 9.75 33.0004 9.75ZM36.2388 14.9331C36.6372 15.0467 36.8679 15.4617 36.7543 15.8601C36.1844 17.8576 35.3042 19.7239 34.1695 21.4035C33.9376 21.7467 33.4714 21.837 33.1281 21.6051C32.7849 21.3732 32.6947 20.907 32.9265 20.5637C33.9741 19.0132 34.7862 17.291 35.3118 15.4485C35.4255 15.0502 35.8405 14.8194 36.2388 14.9331Z" fill="#0F172A"/>
</svg>
