<svg width="129" height="128" viewBox="0 0 129 128" fill="none" xmlns="http://www.w3.org/2000/svg">
<path fill-rule="evenodd" clip-rule="evenodd" d="M42.6673 5.33337C32.3578 5.33337 24.0003 13.6908 24.0003 24.0001V34.6669C18.1092 34.6669 13.3335 39.4425 13.3335 45.3336V69.3337C13.3335 75.2248 18.1092 80.0004 24.0003 80.0004H61.3343C67.2255 80.0004 72.0012 75.2248 72.0012 69.3337V45.3336C72.0012 39.4425 67.2255 34.6669 61.3343 34.6669V24.0001C61.3343 13.6908 52.9768 5.33337 42.6673 5.33337ZM56.0009 34.6669V24.0001C56.0009 16.6363 50.0313 10.6667 42.6673 10.6667C35.3034 10.6667 29.3338 16.6363 29.3338 24.0001V34.6669H56.0009Z" fill="white"/>
<path d="M99.0011 60.6667C104.892 60.6667 109.668 65.4424 109.668 71.3334M120.335 71.3334C120.335 83.1156 110.783 92.6669 99.0011 92.6669C97.754 92.6669 96.5319 92.5599 95.3434 92.3545C93.3415 92.0087 91.2215 92.4464 89.7849 93.8829L80.3341 103.334H72.334V111.334H64.3338V119.334H51.0002V109.314C51.0002 107.192 51.8431 105.157 53.3434 103.657L76.4514 80.5495C77.8879 79.113 78.3256 76.9929 77.9797 74.9911C77.7744 73.8026 77.6674 72.5805 77.6674 71.3334C77.6674 59.5513 87.2188 50 99.0011 50C110.783 50 120.335 59.5513 120.335 71.3334Z" stroke="white" stroke-width="5.5" stroke-linecap="round" stroke-linejoin="round"/>
</svg>
