<svg width="41" height="40" viewBox="0 0 41 40" fill="none" xmlns="http://www.w3.org/2000/svg">
<g clip-path="url(#clip0_2041_496)">
<path
    d="M36.1929 18.2789C36.1359 17.7603 35.6588 17.3983 35.1525 17.4455C34.6645 17.4983 34.3058 17.915 34.311 18.3958C34.311 18.4241 34.311 18.4547 34.3143 18.4849C34.3388 18.6904 34.3529 18.8205 34.3671 19.0302H29.4119C29.3582 19.0302 29.2992 19.0373 29.2464 19.043C26.7931 19.1712 24.8169 21.1161 24.6491 23.5616C24.6416 23.5852 24.6383 23.6177 24.6364 23.6498C24.6321 23.6734 24.6321 23.7026 24.6321 23.7313V33.4258C24.0518 33.6148 23.463 33.7694 22.8633 33.8816C22.8775 33.1938 22.8775 32.2549 22.8817 30.9609V6.0715C23.0321 6.10262 23.1858 6.13184 23.3362 6.16672C23.3513 6.16955 23.3697 6.17379 23.3866 6.17568C23.7958 6.27043 24.1979 6.38874 24.5954 6.51885V19.2395C25.1648 18.7436 25.8131 18.3331 26.523 18.0286L26.5197 14.8562L26.5155 13.583V7.30841C28.7689 8.44161 30.7032 10.1645 32.1047 12.3597C32.4399 12.8867 32.7463 13.4463 33.0094 14.0133C33.1739 14.357 33.5091 14.5601 33.8702 14.5601C34.0012 14.5601 34.1356 14.5304 34.2657 14.4687C34.7353 14.2547 34.9417 13.6909 34.7225 13.2186C34.4236 12.5733 34.08 11.9426 33.6944 11.3439C31.835 8.43784 29.1498 6.25251 26.0271 5.03164C25.9861 5.00995 25.9498 4.98968 25.9097 4.9713C25.7735 4.91851 25.6367 4.87702 25.4972 4.82989V4.82847C24.3809 4.43911 23.2254 4.16335 22.0487 4.02854C22.0327 4.02712 22.0242 4.02854 22.0134 4.02854C21.9738 4.02712 21.936 4.021 21.9007 4.021C21.4363 4.021 21.0262 4.37595 20.9668 4.85487V35.1501C21.0257 35.6285 21.4321 35.9806 21.904 35.9806C21.9384 35.9806 21.9738 35.9806 22.0138 35.9764C25.8489 35.5357 29.3332 33.751 31.9119 30.967C32.5695 30.2623 33.1659 29.4897 33.6948 28.6625C34.0804 28.0629 34.4246 27.4289 34.723 26.7845C34.9422 26.3159 34.7357 25.7507 34.2662 25.5348C33.7943 25.3147 33.2291 25.5188 33.0098 25.9935C32.7468 26.561 32.4404 27.113 32.1052 27.6419C31.1798 29.0947 30.0205 30.3401 28.6902 31.3423C28.009 31.8589 27.2815 32.3114 26.5164 32.6951V23.9001C26.5164 22.255 27.8543 20.92 29.4963 20.92C29.509 20.92 29.5298 20.9158 29.5425 20.9158H34.3675C34.3609 21.0138 34.3534 21.1128 34.3473 21.2118C34.3011 21.7298 34.6834 22.1876 35.2048 22.2281C35.235 22.23 35.2585 22.23 35.2864 22.23C35.771 22.23 36.1816 21.8647 36.2278 21.3725C36.2386 21.2288 36.2504 21.0826 36.2565 20.9375C36.2768 20.615 36.2877 20.2931 36.2877 19.9692C36.2877 19.3814 36.2542 18.8629 36.1934 18.2789H36.1929Z"
    fill="white" />
<path
    d="M20.1911 0C9.16025 0 0.19043 8.97086 0.19043 20.0007C0.19043 31.0306 9.16025 40 20.1911 40C31.222 40 40.1904 31.0277 40.1904 20.0007C40.1904 8.97368 31.2206 0 20.1911 0ZM20.1911 38.1154C10.2026 38.1154 2.07425 29.9879 2.07425 20.0007C2.07425 10.0136 10.2026 1.88741 20.1911 1.88741C30.1797 1.88741 38.3066 10.015 38.3066 20.0007C38.3066 29.9864 30.1825 38.1154 20.1911 38.1154Z"
    fill="white" />
<path
    d="M19.3684 35.0594C19.3708 35.1226 19.3675 35.1871 19.3557 35.2536C19.2708 35.7061 18.8777 36.0262 18.4284 36.0262C18.3916 36.0262 18.3544 36.0262 18.3209 36.0196C16.9957 35.8669 15.6955 35.5501 14.4524 35.0764C14.0861 34.9368 13.8452 34.5875 13.8452 34.1953V22.0516C14.5222 21.8023 15.1539 21.4695 15.73 21.0697V33.5316C16.3051 33.7207 16.8915 33.8734 17.487 33.9884C17.4827 33.5811 17.4827 33.0848 17.4827 32.4786V6.16654C16.8807 6.28203 16.2919 6.4357 15.7139 6.62756C15.7205 7.15362 15.7267 7.95167 15.7267 9.18527C15.73 10.6781 15.73 12.8041 15.73 15.8468C15.73 15.901 15.7234 15.9538 15.7139 16.0043C15.7238 16.0533 15.729 16.1014 15.729 16.1528C15.729 18.8373 13.5454 21.0193 10.8634 21.0193H6.24487C6.17415 21.0193 6.10532 21.0094 6.03838 20.9953C6.08364 21.6783 6.17604 22.3528 6.31558 23.0147C6.66255 24.6683 7.30322 26.2512 8.22391 27.6889C8.50205 28.1254 8.3743 28.7085 7.93493 28.9899C7.777 29.0898 7.60399 29.137 7.43003 29.137C7.11748 29.137 6.81341 28.9823 6.63144 28.7019C5.13984 26.3629 4.28656 23.6883 4.14278 20.9156C4.12769 20.638 4.12109 20.357 4.12109 20.0779C4.12109 17.0088 4.98946 14.0264 6.63144 11.4512C6.91288 11.0133 7.49744 10.8851 7.93493 11.1651C8.3743 11.4455 8.50252 12.0291 8.22391 12.4656C6.9355 14.4798 6.19065 16.7788 6.03791 19.1588C6.10438 19.1437 6.17321 19.1347 6.2444 19.1347H10.863C12.5049 19.1347 13.8428 17.7969 13.8428 16.1528C13.8428 16.1 13.8527 16.0491 13.8589 15.9981C13.8523 15.9505 13.8447 15.8996 13.8447 15.8473C13.8447 15.8473 13.8447 11.1189 13.8424 8.20385V5.96621C13.8424 5.84836 13.865 5.72863 13.9088 5.61644C14.0055 5.36708 14.2021 5.17287 14.4481 5.07671C15.6913 4.60014 16.9896 4.28809 18.3115 4.13348C18.8734 4.07455 19.367 4.51435 19.367 5.07058V20.0982C19.367 25.8962 19.367 34.6257 19.3679 35.0599L19.3684 35.0594Z"
    fill="white" />
</g>
<defs>
<clipPath id="clip0_2041_496">
    <rect width="40" height="40" fill="white" transform="translate(0.19043)" />
</clipPath>
</defs>
</svg>